<svg width="26" height="26" viewBox="0 0 26 26" fill="none" xmlns="http://www.w3.org/2000/svg">
<g clip-path="url(#clip0_9413_3363)">
<path d="M18.8856 25.482C18.3574 25.482 17.8496 25.3601 17.3621 25.1215L13 22.9633L8.63791 25.1215C8.15549 25.3601 7.6426 25.482 7.11448 25.482C6.11916 25.482 5.17463 25.0453 4.51447 24.2785C3.8594 23.5219 3.5801 22.5519 3.72737 21.5516L4.43323 16.7375L1.03088 13.2539C0.121897 12.3297 -0.177712 11.0348 0.223459 9.80077C0.624631 8.56678 1.6301 7.69843 2.90979 7.48007L7.70862 6.66249L9.96838 2.35116C10.5727 1.19843 11.7051 0.512878 13.0051 0.512878C14.3051 0.512878 15.4375 1.19843 16.0418 2.35116L18.3016 6.66249L23.1004 7.48007C24.3801 7.69843 25.3856 8.56678 25.7867 9.80077C26.1879 11.0348 25.8883 12.3297 24.9793 13.2539L21.577 16.7375L22.2828 21.5516C22.4301 22.5519 22.1508 23.5219 21.4957 24.2785C20.8254 25.0453 19.8809 25.482 18.8856 25.482Z" fill="black"/>
<path d="M15.5848 2.58981L17.9613 7.12457L23.009 7.98278C25.3297 8.37887 26.2539 11.2175 24.6086 12.9035L21.0285 16.5648L21.7699 21.6328C22.1102 23.9636 19.698 25.7156 17.5855 24.6746L13 22.3945L8.41445 24.6695C6.30195 25.7156 3.88984 23.9586 4.23007 21.6277L4.97148 16.5597L1.3914 12.8984C-0.25391 11.2175 0.670309 8.37887 2.99101 7.98278L8.03867 7.12457L10.4152 2.58981C11.507 0.502698 14.493 0.502698 15.5848 2.58981Z" fill="#FFD400"/>
<path d="M13 20.9371C16.8507 20.9371 19.9723 17.8155 19.9723 13.9648C19.9723 10.1141 16.8507 6.99255 13 6.99255C9.14936 6.99255 6.02777 10.1141 6.02777 13.9648C6.02777 17.8155 9.14936 20.9371 13 20.9371Z" fill="black"/>
<path d="M13 20.4293C16.5703 20.4293 19.4645 17.535 19.4645 13.9648C19.4645 10.3946 16.5703 7.50037 13 7.50037C9.42982 7.50037 6.53558 10.3946 6.53558 13.9648C6.53558 17.535 9.42982 20.4293 13 20.4293Z" fill="url(#paint0_linear_9413_3363)"/>
<path d="M11.6797 17.7328C11.2633 17.7328 10.8723 17.5703 10.5828 17.2758L8.79026 15.4883C8.18596 14.884 8.18596 13.8988 8.79026 13.2945C9.08479 13 9.47073 12.8375 9.88713 12.8375C10.3035 12.8375 10.6946 13 10.984 13.2945L11.6746 13.9851L15.011 10.6488C15.3055 10.3543 15.6965 10.1918 16.1078 10.1918C16.5192 10.1918 16.9153 10.3543 17.2047 10.6488C17.809 11.2531 17.809 12.2383 17.2047 12.8426L12.7715 17.2758C12.4821 17.5703 12.091 17.7328 11.6797 17.7328Z" fill="black"/>
<path d="M15.3715 11.0043L11.6797 14.7011L10.6286 13.65C10.2223 13.2437 9.55707 13.2437 9.15082 13.65C8.74457 14.0562 8.74457 14.7215 9.15082 15.1277L10.9383 16.9152C11.3446 17.3215 12.0098 17.3215 12.4161 16.9152L16.8493 12.482C17.2555 12.0758 17.2555 11.4105 16.8493 11.0043C16.443 10.598 15.7829 10.598 15.3715 11.0043Z" fill="#FFD400"/>
</g>
<defs>
<linearGradient id="paint0_linear_9413_3363" x1="13.0003" y1="20.428" x2="13.0003" y2="7.49707" gradientUnits="userSpaceOnUse">
<stop stop-color="#FFE187"/>
<stop offset="1" stop-color="#FFF8E0"/>
</linearGradient>
<clipPath id="clip0_9413_3363">
<rect width="26" height="26" fill="white"/>
</clipPath>
</defs>
</svg>
