<svg width="28" height="29" viewBox="0 0 28 29" fill="none" xmlns="http://www.w3.org/2000/svg">
<path d="M27.9915 12.3888C27.9855 12.3339 27.9773 12.2797 27.9655 12.226V12.2257C27.9136 11.988 27.8076 11.7635 27.6508 11.5774C27.6273 11.5496 27.6005 11.5248 27.575 11.4986C27.3718 11.2921 27.1045 11.142 26.7812 11.0937L22.5939 10.4691L21.1993 10.261L19.523 10.0109L19.2271 9.96676L18.7372 8.94773L17.8584 7.11937L17.2962 5.94982L15.8488 2.93892C15.6006 2.42269 15.1299 2.15444 14.648 2.12803C14.5961 2.12529 14.5444 2.12529 14.4925 2.12803C14.0105 2.15444 13.5399 2.42269 13.2917 2.93892L11.8443 5.94982L11.282 7.11937L10.4033 8.94773L9.91333 9.96676L9.61746 10.0109L7.94115 10.261L6.54651 10.4691L2.35928 11.0937C2.02725 11.1432 1.75444 11.2998 1.54951 11.515C1.52888 11.5353 1.50803 11.5553 1.4894 11.5774C1.29689 11.8058 1.18045 12.0916 1.14851 12.3892C1.14784 12.3958 1.14673 12.4024 1.14629 12.409C1.14163 12.4594 1.13963 12.5097 1.14007 12.5602C1.14007 12.573 1.1403 12.5857 1.14074 12.5985C1.1423 12.6443 1.14563 12.6898 1.15139 12.7356C1.15361 12.7543 1.15671 12.7729 1.15982 12.7916C1.16647 12.8324 1.17423 12.8729 1.18444 12.9132C1.19042 12.9374 1.19819 12.9613 1.20551 12.9852C1.21637 13.0205 1.22724 13.0558 1.24099 13.0904C1.25253 13.1197 1.26672 13.1484 1.28048 13.1774C1.29423 13.2065 1.30709 13.2359 1.32306 13.2644C1.3428 13.2996 1.36631 13.3338 1.38938 13.368C1.40379 13.3894 1.41643 13.4115 1.43218 13.4322C1.47321 13.4864 1.51802 13.539 1.56814 13.5893C1.56858 13.5898 1.56881 13.59 1.56903 13.5904L7.03512 19.0609L6.58643 21.7466L6.47576 22.4086L5.75892 26.699L5.74451 26.7853C5.73209 26.86 5.72499 26.9338 5.72344 27.006C5.71989 27.1504 5.73697 27.2893 5.77179 27.4202C5.78909 27.4856 5.81083 27.5491 5.83655 27.6104C5.88801 27.7329 5.95543 27.8461 6.03572 27.9481C6.07586 27.9991 6.11912 28.0471 6.16547 28.092C6.25774 28.1819 6.36154 28.2591 6.47332 28.3215C6.52921 28.3527 6.5871 28.3803 6.64676 28.4037C6.82553 28.4741 7.01916 28.5083 7.21722 28.4982C7.28331 28.4951 7.34962 28.4866 7.41616 28.4734C7.54924 28.4465 7.68276 28.3992 7.81362 28.3286L14.5701 24.6817L21.3266 28.3286C21.5227 28.4345 21.7252 28.4885 21.923 28.4982C21.9246 28.4982 21.9259 28.498 21.9274 28.4982C22.1035 28.5064 22.2754 28.4775 22.4371 28.4217C22.5547 28.3812 22.6656 28.3252 22.7687 28.2557C22.7973 28.2364 22.8257 28.2172 22.8528 28.1961C23.2489 27.8866 23.4931 27.3706 23.3953 26.7853L23.3809 26.699L22.664 22.4086L22.4706 21.2504L22.1049 19.0609L27.571 13.5904C27.5714 13.59 27.5716 13.5898 27.5719 13.5893C27.622 13.539 27.667 13.4864 27.7078 13.4322C27.7236 13.4115 27.736 13.3894 27.7504 13.3682C27.7735 13.3338 27.797 13.2996 27.8169 13.2644C27.8329 13.2361 27.8456 13.207 27.8593 13.178C27.8731 13.1489 27.8872 13.12 27.899 13.0904C27.9125 13.056 27.9234 13.0209 27.9343 12.9859C27.9418 12.9615 27.9496 12.9376 27.9556 12.913C27.9658 12.8729 27.9735 12.8326 27.9802 12.7921C27.9833 12.7732 27.9864 12.7543 27.9886 12.7354C27.9944 12.6898 27.9977 12.6445 27.9993 12.599C27.9997 12.586 27.9997 12.573 27.9999 12.56C28.0001 12.5097 27.9984 12.4596 27.9937 12.4095C27.9933 12.4027 27.9922 12.3958 27.9915 12.3888Z" fill="#EDE8C5"/>
<path d="M13.4333 23.059L6.67678 26.7059C5.6308 27.2707 4.40828 26.3586 4.60789 25.1627L5.89828 17.4382L0.432186 11.9678C-0.414177 11.1209 0.0529171 9.64527 1.22243 9.47084L8.77627 8.34386L12.1544 1.31603C12.6774 0.227991 14.1885 0.227991 14.7115 1.31603L18.0896 8.34386L25.6434 9.47084C26.813 9.64527 27.2798 11.1209 26.4337 11.9678L20.9676 17.4382L22.258 25.1627C22.4578 26.3584 21.2353 27.2704 20.1891 26.7059L13.4333 23.059Z" fill="#FFC921"/>
<path d="M24.4502 13.9533L18.7967 13.3963L26.5138 9.95435C26.4902 9.92657 26.4634 9.90152 26.4379 9.87556L18.2717 11.7372L21.4569 8.84582L20.0622 8.63769L17.2732 10.3258L18.3859 8.38765L18.09 8.34348L17.6001 7.32444L15.8985 9.30058L16.7214 5.49609L16.1591 4.32653L14.2827 8.76134L13.5111 0.504735C13.4592 0.502002 13.4073 0.502002 13.3554 0.504735L12.5838 8.76134L10.7074 4.32653L10.1452 5.49609L10.968 9.30058L9.26644 7.32444L8.7765 8.34348L8.48062 8.38765L9.59336 10.3258L6.80431 8.63769L5.40967 8.84582L8.59485 11.7372L0.428639 9.87556C0.403133 9.90152 0.376072 9.92657 0.352783 9.95435L8.06986 13.3963L2.41635 13.9533L3.11522 14.6526L8.06986 15.1409L4.98006 16.519L5.87921 17.419L8.59485 16.7998L5.54231 19.5709L5.33936 20.786L9.59358 18.2112L5.07698 26.0777L10.968 19.2366L9.70625 25.071L10.532 24.6253L12.5838 19.7758L12.9167 23.338L13.4333 23.0593L13.9498 23.338L14.2827 19.7758L16.3345 24.6253L17.1603 25.071L15.8985 19.2366L21.7896 26.0777L17.273 18.2112L21.5272 20.786L21.3242 19.5709L18.2717 16.7998L20.9873 17.419L21.8865 16.519L18.7967 15.1409L23.7513 14.6526L24.4502 13.9533Z" fill="#FFB300"/>
<path d="M26.4341 11.314L20.968 16.7845V17.4389L26.4341 11.9685C26.8194 11.5829 26.93 11.0676 26.8285 10.6035C26.7701 10.8592 26.6424 11.1056 26.4341 11.314Z" fill="#C48900"/>
<path d="M5.89854 16.7845L0.432442 11.314C0.224178 11.1056 0.0964218 10.8592 0.0380901 10.6035C-0.0634912 11.0676 0.047187 11.5829 0.432442 11.9685L5.89854 17.4389V16.7845Z" fill="#C48900"/>
<path d="M22.2441 25.0771C22.052 25.9668 21.0612 26.5224 20.1896 26.0522L13.4331 22.4053L6.6766 26.0522C5.80517 26.5226 4.8142 25.9668 4.62212 25.0771L4.60771 25.1634C4.40787 26.3591 5.6304 27.2711 6.6766 26.7066L13.4331 23.0597L20.1896 26.7066C21.2356 27.2714 22.4581 26.3594 22.2585 25.1634L22.2441 25.0771Z" fill="#C48900"/>
<path d="M13.4333 19.9966L9.10765 22.3314C8.43806 22.6927 7.65535 22.1089 7.78311 21.3433L8.60929 16.3979L5.10983 12.8956C4.56799 12.3534 4.86697 11.4086 5.61574 11.297L10.4519 10.5756L12.6149 6.07615C12.9498 5.37956 13.9172 5.37956 14.2522 6.07615L16.4151 10.5756L21.2513 11.297C22.0001 11.4089 22.299 12.3534 21.7572 12.8956L18.2577 16.3979L19.0839 21.3433C19.2119 22.1089 18.4292 22.6927 17.7594 22.3314L13.4333 19.9966Z" fill="#FFB300"/>
<path d="M13.4333 19.4474L9.50286 21.5688C8.89448 21.8972 8.18319 21.3668 8.29941 20.6711L9.04996 16.1778L5.87033 12.9954C5.37795 12.5027 5.64965 11.6444 6.33011 11.5428L10.7243 10.8872L12.6894 6.79901C12.9937 6.16595 13.8726 6.16595 14.1769 6.79901L16.142 10.8872L20.5362 11.5428C21.2164 11.6444 21.4881 12.5027 20.996 12.9954L17.8163 16.1778L18.5669 20.6711C18.6831 21.3668 17.972 21.8974 17.3634 21.5688L13.4333 19.4474Z" fill="#C48900"/>
<path d="M13.4333 18.7773L9.9864 20.638C9.45276 20.9261 8.82908 20.4608 8.93088 19.8508L9.58917 15.9101L6.80056 13.1192C6.36873 12.6872 6.60716 11.9344 7.20378 11.8453L11.0577 11.2704L12.7812 7.68494C13.048 7.12976 13.819 7.12976 14.0858 7.68494L15.8094 11.2704L19.6632 11.8453C20.2599 11.9344 20.4981 12.6872 20.0665 13.1192L17.2779 15.9101L17.9361 19.8508C18.0379 20.4608 17.4143 20.9261 16.8806 20.638L13.4333 18.7773Z" fill="#FFD633"/>
<path d="M20.2656 12.7617C15.7576 13.0509 11.7733 15.314 9.11958 18.7202L8.93061 19.8508C8.82859 20.4609 9.45249 20.9261 9.98613 20.638L13.433 18.7773L16.8799 20.638C17.4135 20.9261 18.0372 20.4609 17.9354 19.8508L17.2771 15.9102L20.0658 13.1192C20.1709 13.0143 20.2354 12.8904 20.2656 12.7617Z" fill="#FFC921"/>
<path d="M9.58915 15.9101C9.58915 15.5813 9.45985 15.2663 9.23051 15.0368L6.80055 12.605C6.7187 12.523 6.66104 12.4294 6.62533 12.3311C6.53461 12.5893 6.57809 12.8967 6.80055 13.1192L9.58915 15.9101Z" fill="#E6A100"/>
<path d="M20.066 12.605L17.636 15.0368C17.4066 15.2663 17.2773 15.5813 17.2773 15.9101L20.066 13.1192C20.2884 12.8965 20.3319 12.5893 20.2412 12.3311C20.2055 12.4294 20.1478 12.523 20.066 12.605Z" fill="#E6A100"/>
<path d="M17.9097 19.6955C17.7777 20.1079 17.3016 20.3509 16.8802 20.1234L13.4333 18.2627L9.98637 20.1234C9.56496 20.3509 9.089 20.1079 8.95681 19.6955L8.93086 19.8506C8.82883 20.4606 9.45274 20.9259 9.98637 20.6378L13.4333 18.7771L16.8802 20.6378C17.4138 20.9259 18.0375 20.4606 17.9357 19.8506L17.9097 19.6955Z" fill="#E6A100"/>
<path d="M13.1164 9.8419C12.885 10.5524 12.5455 11.0761 12.3579 11.0117C12.1702 10.9472 12.2055 10.3192 12.4368 9.60871C12.6681 8.89823 13.0077 8.37471 13.1953 8.43892C13.383 8.50337 13.3475 9.13142 13.1164 9.8419Z" fill="#FCF3BD"/>
<path d="M9.38752 12.7978C8.32025 12.9256 7.43663 12.8655 7.41378 12.6637C7.39094 12.462 8.23752 12.1948 9.30457 12.0671C10.3716 11.9393 11.2555 11.9995 11.2783 12.2012C11.3012 12.403 10.4548 12.6701 9.38752 12.7978Z" fill="#FCF3BD"/>
<path d="M12.4061 11.6968C12.3611 11.8353 12.2152 11.91 12.0803 11.8638C11.9455 11.8175 11.8727 11.6677 11.9177 11.5292C11.9628 11.3908 12.1087 11.3161 12.2436 11.3623C12.3786 11.4085 12.4514 11.5584 12.4061 11.6968Z" fill="#FCF3BD"/>
</svg>
