<svg width="24" height="24" viewBox="0 0 24 24" fill="none" xmlns="http://www.w3.org/2000/svg">
<path d="M19.8123 10.0149C19.6745 9.60488 19.3303 9.31069 18.9123 9.24656L14.8696 8.62613L13.0578 4.782C12.8688 4.37644 12.479 4.125 12.0414 4.125C11.6038 4.125 11.2139 4.377 11.0249 4.78088L9.21257 8.62669L5.16988 9.24713C4.75251 9.31125 4.4077 9.606 4.26988 10.0155C4.12813 10.4379 4.23107 10.8975 4.5382 11.2136L7.48007 14.241L6.78482 18.5228C6.7117 18.9739 6.89395 19.4137 7.26126 19.6719C7.45251 19.8064 7.67414 19.8744 7.89689 19.8744C8.08082 19.8744 8.26476 19.8278 8.43407 19.7344L12.0318 17.7274L15.6493 19.7344C16.0228 19.9419 16.4722 19.9178 16.8215 19.6719C17.1888 19.4143 17.3711 18.9739 17.2979 18.5233L16.6027 14.2416L19.5446 11.2142C19.8517 10.8981 19.9546 10.4391 19.8129 10.0161L19.8123 10.0149Z" fill="#FFD400"/>
</svg>
