<svg width="33" height="32" viewBox="0 0 33 32" fill="none" xmlns="http://www.w3.org/2000/svg">
<path d="M19.8328 31.9999C20.9003 31.9999 21.8312 31.0834 21.8312 30.0324V25.4375H23.1656C23.9664 25.4375 24.5 24.9119 24.5 24.1238V11H8.5V24.1239C8.5 24.9121 9.03376 25.4376 9.83439 25.4376H11.1689V30.0325C11.1689 31.0835 12.0996 32 13.1673 32C14.2347 32 15.1656 31.0835 15.1656 30.0325V25.4376H17.8344V30.0325C17.8343 31.0834 18.7653 31.9999 19.8328 31.9999Z" fill="white"/>
<path d="M28.5001 24C29.5685 24 30.5 23.0922 30.5 22.0511V12.9481C30.5 11.9125 29.5685 11 28.5001 11C27.4316 11 26.5 11.9125 26.5 12.9481V22.0511C26.5 23.0921 27.4315 24 28.5001 24Z" fill="white"/>
<path d="M5.49989 24C6.5684 24 7.5 23.0922 7.5 22.0511V12.9481C7.5 11.9125 6.56851 11 5.49989 11C4.43149 11 3.5 11.9125 3.5 12.9481V22.0511C3.5 23.0921 4.43149 24 5.49989 24Z" fill="white"/>
<path d="M22.8986 0.19567C22.6319 -0.0652234 22.2347 -0.0652234 21.9679 0.19567L20.1782 1.92906L20.0956 2.00919C19.0344 1.49279 17.8446 1.2349 16.5195 1.23241C16.5131 1.23241 16.5067 1.2322 16.5002 1.2322H16.4999C16.4932 1.2322 16.4871 1.23241 16.4803 1.23241C15.1554 1.2349 13.9656 1.49279 12.9045 2.00919L12.8217 1.92906L11.0321 0.19567C10.7651 -0.0652234 10.3681 -0.0652234 10.1014 0.19567C9.83439 0.455114 9.83439 0.840139 10.1014 1.09938L11.8326 2.78204C11.2748 3.14397 10.7689 3.58687 10.329 4.09344C9.27592 5.30649 8.60419 6.88521 8.51183 8.59572C8.51097 8.61353 8.50916 8.63113 8.50831 8.64893C8.50266 8.7654 8.5 8.88249 8.5 9H24.5C24.5 8.88249 24.4971 8.7654 24.4917 8.64893C24.4908 8.63113 24.489 8.61353 24.488 8.59572C24.3958 6.88521 23.7239 5.30639 22.6707 4.09354C22.2311 3.58698 21.725 3.14408 21.1672 2.78214L22.8986 1.09948C23.1656 0.840139 23.1656 0.455114 22.8986 0.19567ZM13.1648 6.73592C12.6127 6.73592 12.1651 6.30099 12.1651 5.76451C12.1651 5.22802 12.6127 4.79309 13.1648 4.79309C13.7169 4.79309 14.1644 5.22802 14.1644 5.76451C14.1644 6.30099 13.7169 6.73592 13.1648 6.73592ZM19.8352 6.73592C19.2831 6.73592 18.8356 6.30099 18.8356 5.76451C18.8356 5.22802 19.2831 4.79309 19.8352 4.79309C20.3873 4.79309 20.8349 5.22802 20.8349 5.76451C20.8349 6.30099 20.3873 6.73592 19.8352 6.73592Z" fill="white"/>
</svg>
