<svg width="49" height="48" viewBox="0 0 49 48" fill="none" xmlns="http://www.w3.org/2000/svg">
<path d="M35.2378 25.7072C35.1914 20.5504 39.4602 18.0416 39.6554 17.9248C37.2378 14.4 33.4906 13.9184 32.1738 13.88C29.0266 13.5488 25.9738 15.7632 24.3706 15.7632C22.7354 15.7632 20.2666 13.912 17.6058 13.9664C14.1818 14.0192 10.9786 16.0016 9.22175 19.08C5.59615 25.3568 8.30015 34.5808 11.7738 39.6544C13.5114 42.1392 15.5418 44.9136 18.1994 44.816C20.7994 44.7088 21.7706 43.1584 24.9082 43.1584C28.017 43.1584 28.929 44.816 31.6394 44.7536C34.4298 44.7088 36.1866 42.2576 37.8634 39.7504C39.8714 36.9024 40.6778 34.0976 40.7098 33.9536C40.6442 33.9312 35.2906 31.888 35.2378 25.7072Z" fill="white"/>
<path d="M30.118 10.5424C31.5164 8.7936 32.4732 6.4144 32.2076 4C30.1836 4.0896 27.6524 5.4 26.1948 7.1104C24.9052 8.6176 23.7532 11.088 24.0508 13.4112C26.3244 13.5808 28.6588 12.264 30.118 10.5424Z" fill="white"/>
</svg>
