<svg width="49" height="48" viewBox="0 0 49 48" fill="none" xmlns="http://www.w3.org/2000/svg">
<path d="M23.0321 22.8996L6.65234 40.2857C6.65296 40.2893 6.65419 40.2923 6.65477 40.296C7.15712 42.184 8.88151 43.5741 10.928 43.5741C11.7461 43.5741 12.5142 43.3529 13.1729 42.9646L13.2252 42.934L31.6637 32.2941L23.033 22.8994" fill="#EB3131"/>
<path d="M39.6053 19.9397L39.5896 19.9289L31.6291 15.3141L22.6606 23.2947L31.6603 32.2933L39.5788 27.7243C40.967 26.9749 41.9095 25.5113 41.9095 23.8236C41.9095 22.148 40.9797 20.6917 39.6052 19.9398" fill="#F6B60B"/>
<path d="M6.65023 7.28717C6.55176 7.65029 6.5 8.03064 6.5 8.4256V39.1486C6.5 39.5428 6.55115 39.9245 6.65085 40.2863L23.5961 23.3444L6.65085 7.28761" fill="#5778C5"/>
<path d="M23.1545 23.7871L31.6332 15.3108L13.2155 4.63238C12.546 4.23141 11.7647 4 10.9286 4C8.88213 4 7.15541 5.39265 6.65296 7.28279C6.65234 7.28463 6.65234 7.2859 6.65234 7.28752L23.1545 23.7874" fill="#3BAD49"/>
</svg>
