<svg width="42" height="42" viewBox="0 0 42 42" fill="none" xmlns="http://www.w3.org/2000/svg">
<rect width="42" height="42" rx="21" fill="url(#paint0_linear_9413_4800)"/>
<path d="M29.8764 25.0462L21.5206 14.2481C21.461 14.1713 21.3828 14.1087 21.2923 14.0656C21.2018 14.0225 21.1016 14 21 14C20.8984 14 20.7982 14.0225 20.7077 14.0656C20.6172 14.1087 20.539 14.1713 20.4794 14.2481L12.1236 25.0462C12.0531 25.1363 12.0109 25.243 12.0019 25.3543C11.9928 25.4656 12.0171 25.577 12.0722 25.6761C12.1265 25.7739 12.2086 25.8558 12.3095 25.913C12.4104 25.9701 12.5262 26.0002 12.6442 26H29.3558C29.4738 26.0002 29.5896 25.9701 29.6905 25.913C29.7914 25.8558 29.8735 25.7739 29.9278 25.6761C29.9829 25.577 30.0072 25.4656 29.9981 25.3543C29.9891 25.243 29.9469 25.1363 29.8764 25.0462Z" fill="#FFD400"/>
<defs>
<linearGradient id="paint0_linear_9413_4800" x1="20.1024" y1="42" x2="20.1024" y2="8.75472e-07" gradientUnits="userSpaceOnUse">
<stop stop-color="#14152D"/>
<stop offset="1" stop-color="#45465E"/>
</linearGradient>
</defs>
</svg>
