<svg width="149" height="58" viewBox="0 0 149 58" fill="none" xmlns="http://www.w3.org/2000/svg">
<path d="M0.5 8C0.5 3.58172 4.08172 0 8.5 0H140.5C144.918 0 148.5 3.58172 148.5 8V50C148.5 54.4183 144.918 58 140.5 58H8.5C4.08173 58 0.5 54.4183 0.5 50V8Z" fill="#33334F"/>
<g clip-path="url(#clip0_28_7460)">
<path d="M93.5531 33.5598C90.909 43.6581 80.1671 49.8038 69.5601 47.2856C58.9575 44.768 52.5031 34.5394 55.1483 24.4419C57.7912 14.3425 68.5331 8.19641 79.1368 10.714C89.7431 13.2315 96.1971 23.4612 93.5528 33.56L93.553 33.5598H93.5531Z" fill="white" fill-opacity="0.5"/>
<path d="M83.08 26.3141C83.4741 23.8055 81.4683 22.4571 78.7255 21.5576L79.6153 18.1596L77.4429 17.6442L76.5767 20.9527C76.0056 20.8171 75.4191 20.6893 74.8362 20.5626L75.7086 17.2322L73.5376 16.7168L72.6473 20.1137C72.1747 20.0113 71.7105 19.91 71.2601 19.8033L71.2627 19.7926L68.2669 19.0803L67.689 21.2896C67.689 21.2896 69.3007 21.6413 69.2668 21.663C70.1465 21.872 70.3055 22.4265 70.2791 22.866L69.2656 26.7372C69.3262 26.7518 69.4047 26.773 69.4914 26.8062C69.419 26.789 69.3418 26.7703 69.2618 26.7521L67.8412 32.175C67.7337 32.4295 67.4608 32.8114 66.8457 32.6664C66.8675 32.6964 65.2668 32.2912 65.2668 32.2912L64.1882 34.6589L67.0153 35.33C67.5412 35.4555 68.0566 35.5869 68.5641 35.7105L67.6652 39.1475L69.8351 39.6629L70.7253 36.2624C71.3181 36.4156 71.8934 36.5569 72.4566 36.6902L71.5693 40.0746L73.7418 40.5901L74.6407 37.1595C78.3451 37.8271 81.1306 37.5579 82.303 34.3676C83.2477 31.799 82.256 30.3174 80.3071 29.3513C81.7265 29.0396 82.7957 28.1506 83.0808 26.3143L83.0801 26.3139L83.08 26.3141ZM78.1166 32.9411C77.4452 35.5097 72.9032 34.1212 71.4306 33.773L72.6235 29.2196C74.096 29.5696 78.8182 30.2623 78.1167 32.9411H78.1166ZM78.7884 26.2768C78.176 28.6133 74.3956 27.4263 73.1693 27.1352L74.2508 23.0055C75.4772 23.2966 79.4264 23.8398 78.7886 26.2768H78.7884Z" fill="white" fill-opacity="0.5"/>
</g>
<defs>
<clipPath id="clip0_28_7460">
<rect width="39.5899" height="37.7" fill="white" transform="translate(54.5554 10.1499)"/>
</clipPath>
</defs>
</svg>
