<svg width="264" height="78" preserveAspectRatio="none" viewBox="0 0 264 78" fill="none" xmlns="http://www.w3.org/2000/svg">
<path fill-rule="evenodd" clip-rule="evenodd" d="M130.041 4.06735C130.041 4.06735 179.028 4.17776 182.117 3.84653C185.207 3.5015 251.961 -1.27369 252.311 0.327244C252.662 1.92817 152.814 18.7794 152.814 18.7794L130.041 4.06735Z" fill="url(#paint0_linear_3274_22862)"/>
<path fill-rule="evenodd" clip-rule="evenodd" d="M263.442 67.5525C263.293 68.0218 263.118 68.5324 262.929 69.0706C261.877 72.0241 260.339 75.64 259.65 76.5094C259.65 76.5094 259.61 76.5508 259.597 76.5647C259.556 76.5923 259.529 76.6061 259.489 76.6199C259.421 76.6613 259.327 76.6751 259.205 76.7165C259.043 76.7579 258.882 76.7855 258.679 76.8269C258.504 76.8683 258.288 76.8959 258.059 76.9235C257.937 76.9235 257.816 76.9511 257.681 76.9787C256.79 77.0891 255.63 77.1857 254.227 77.2685C254.133 77.2685 254.038 77.2685 253.944 77.2685C253.445 77.3099 252.932 77.3237 252.379 77.3651C252.082 77.3651 251.772 77.3927 251.448 77.4065C248.48 77.5721 244.878 77.6825 240.992 77.7515C240.911 77.7515 240.83 77.7515 240.749 77.7515C238.254 77.8068 235.636 77.8344 232.992 77.8482C225.639 77.9034 218.003 77.8482 211.851 77.6273H211.798C211.244 77.6273 210.691 77.5859 210.165 77.5721C208.802 77.5169 207.548 77.4617 206.388 77.3927C205.915 77.3651 205.47 77.3375 205.052 77.3099C203.77 77.2271 202.664 77.1167 201.76 77.0063C190.293 75.5434 90.6608 77.5031 76.2388 76.7579C75.7531 76.7303 75.2269 76.7027 74.6738 76.6889C74.3096 76.6613 73.9453 76.6475 73.5406 76.6337C73.1628 76.6337 72.7851 76.6061 72.3803 76.5785C72.097 76.5785 71.7867 76.5508 71.4899 76.537C71.1122 76.5094 70.7479 76.4957 70.3432 76.4818C69.7765 76.4542 69.1829 76.4266 68.5893 76.4128C68.4949 76.4128 68.3869 76.4128 68.2925 76.4128C67.3616 76.3576 66.3903 76.33 65.3919 76.2886C64.8793 76.261 64.3396 76.2334 63.7865 76.2196C62.6128 76.1644 61.3851 76.1092 60.1304 76.054C59.5368 76.0264 58.9297 75.9988 58.3091 75.985C57.6615 75.9436 57.0139 75.9298 56.3529 75.9022C55.476 75.8608 54.5586 75.8332 53.6412 75.7918C53.196 75.7642 52.7507 75.7504 52.3055 75.7366C49.8502 75.64 47.3408 75.5296 44.818 75.433C44.2648 75.4054 43.7117 75.3778 43.1586 75.364C42.9427 75.364 42.7134 75.364 42.484 75.3364C41.7015 75.3088 40.9055 75.2812 40.1231 75.2397C39.6779 75.2397 39.2326 75.1983 38.7739 75.1845C37.9375 75.1431 37.1011 75.1155 36.2781 75.0741H36.1432C33.2291 74.9637 30.4229 74.8395 27.8327 74.7429C27.3335 74.7153 26.8208 74.6877 26.3216 74.6877C25.9304 74.6877 25.5661 74.6601 25.2019 74.6325C24.986 74.6325 24.7837 74.6325 24.5813 74.6049C24.0686 74.6049 23.5695 74.5635 23.0838 74.5497C22.733 74.5497 22.3957 74.5221 22.0719 74.5083C20.7498 74.4531 19.5221 74.4117 18.4159 74.3565C18.3214 74.3565 18.227 74.3565 18.1325 74.3565C17.6873 74.3565 17.2691 74.3151 16.8509 74.3013C16.5406 74.3013 16.2438 74.2737 15.974 74.2599C15.178 74.2323 14.4899 74.2047 13.9233 74.1771H13.7344C13.0329 74.1495 12.5607 74.1218 12.3314 74.1218H12.183C11.5354 73.8182 10.9013 73.5008 10.2942 73.1972C9.98391 73.0454 9.6871 72.8935 9.3903 72.7417C6.44924 71.2098 3.96687 69.6365 2.45587 67.8423C2.36143 67.7319 2.28048 67.6353 2.18604 67.5249C2.07811 67.4007 1.99717 67.2765 1.91622 67.1385C1.82178 67.0143 1.74084 66.8763 1.67338 66.7521C1.52498 66.5174 1.40356 66.2828 1.29563 66.0482C1.1877 65.7998 1.10675 65.4961 1.05279 65.1373C0.80995 63.7434 0.890896 61.5352 1.13374 58.9268C1.25516 57.5053 1.41705 55.9458 1.59243 54.3586C1.86226 51.7916 2.15906 49.0866 2.33445 46.561C2.38841 45.7467 2.42888 44.9463 2.45587 44.1734C2.49634 43.2901 2.50983 42.4207 2.48285 41.6202C2.48285 41.3442 2.48285 41.0543 2.44237 40.7645C2.07811 32.1526 -0.485197 12.9414 0.0814295 11.2991C0.189358 10.9817 0.364743 10.4434 0.607583 9.78098C0.661547 9.58777 0.742494 9.38075 0.80995 9.17373C1.07977 8.41467 1.39007 7.5314 1.72735 6.62052C1.87575 6.26169 2.01066 5.90287 2.13208 5.55784C2.33445 5.04719 2.52332 4.56416 2.73918 4.09492C2.84711 3.8327 2.95504 3.58428 3.07646 3.32205C3.23835 2.94942 3.41374 2.59059 3.57563 2.27317C3.69705 2.06615 3.80498 1.87294 3.89942 1.69352C3.95338 1.59691 4.02084 1.5003 4.08829 1.4037C4.15575 1.30709 4.2232 1.22428 4.27717 1.14148C4.33113 1.05867 4.39859 0.989663 4.43906 0.948259C4.49302 0.893055 4.54699 0.837851 4.60095 0.796447C4.62794 0.796447 4.66841 0.755044 4.73586 0.741243C4.8303 0.713641 4.9787 0.686038 5.16758 0.686038C5.47788 0.644635 5.90959 0.630834 6.46273 0.630834C6.63811 0.630834 6.85397 0.630834 7.05634 0.630834C7.69042 0.630834 8.44592 0.603231 9.29586 0.603231C12.129 0.603231 16.0684 0.686039 20.7228 0.810249C21.3164 0.810249 21.9235 0.851652 22.5441 0.865453C23.1917 0.865453 23.8528 0.906857 24.5408 0.920658H24.7432C25.2963 0.94826 25.8495 0.962061 26.4296 0.975862C26.6859 0.975862 26.9422 1.00346 27.1986 1.00346C27.3874 1.00346 27.5898 1.00346 27.7652 1.00346H28.089C30.0857 1.07247 32.1363 1.14148 34.2544 1.21048C38.3827 1.34849 42.6864 1.5003 47.0035 1.63832C47.6916 1.66592 48.3796 1.69352 49.0542 1.70732C49.8097 1.73492 50.5787 1.76253 51.3342 1.77633C52.1706 1.81773 52.9801 1.83153 53.8031 1.87294C54.4371 1.87294 55.0847 1.91434 55.7188 1.92814C56.5957 1.96954 57.4591 1.98335 58.3226 2.02475C63.7595 2.20416 68.9401 2.39738 73.5136 2.54919C73.9858 2.57679 74.4445 2.5906 74.9032 2.6044C76.5761 2.6596 78.1545 2.701 79.625 2.77001C80.1917 2.77001 80.7313 2.79761 81.2575 2.82521C81.7027 2.82521 82.1344 2.85282 82.5526 2.85282C83.1058 2.88042 83.6319 2.89422 84.1446 2.90802C85.5881 2.94942 86.8293 2.97703 87.8276 2.99083C93.7637 3.08744 109.967 3.61188 127.505 4.12252H127.559C128.449 4.15012 129.34 4.17772 130.23 4.19153C153.597 4.85398 178.474 5.43363 184.208 4.89538C184.748 4.84018 185.099 4.77117 185.287 4.70217C186.947 4.05351 199.777 2.93562 213.767 1.94194C216.344 1.77633 218.948 1.59691 221.538 1.4313C236.689 0.479021 251.07 -0.155831 252.284 0.313407C253.094 0.617032 254.106 1.04487 255.144 1.58311C255.36 1.67972 255.563 1.79013 255.779 1.91434C255.981 2.02475 256.197 2.14896 256.399 2.27317C256.615 2.41118 256.817 2.53539 257.02 2.6734C257.222 2.81141 257.424 2.94942 257.627 3.08743C258.328 3.58428 258.962 4.15012 259.462 4.74357C259.624 4.90918 259.745 5.0886 259.88 5.26801C259.961 5.40602 260.042 5.53023 260.123 5.66825C260.312 5.98567 260.473 6.3169 260.581 6.66193C261.215 8.66309 260.487 18.9449 260.082 27.9433C260.055 28.5781 260.028 29.2268 260.001 29.834C259.947 31.4212 259.88 32.9393 259.853 34.3194C259.799 36.8312 259.812 38.9428 259.988 40.3505C260.379 43.6352 261.215 49.2936 262.038 54.3586V54.4138C262.915 59.8653 263.752 64.6267 263.954 65.0131C264.076 65.2339 263.846 66.2138 263.415 67.5525H263.442Z" fill="#1F2132"/>
<g style="mix-blend-mode:soft-light" opacity="0.6">
<path d="M253.66 2.82518C252.338 3.37723 248.021 9.96037 246.686 9.96037C245.35 9.96037 194.529 17.4958 185.76 17.8684C183.358 17.965 102.641 15.4808 52.5754 13.2864C30.0722 12.3066 13.8559 10.609 13.5456 10.5676C12.5472 10.4434 8.70227 1.67969 8.70227 1.67969C8.70227 1.67969 8.93162 1.27946 9.32286 0.589401C25.0265 0.630804 75.2674 2.78378 87.8681 2.9908C93.8042 3.0874 110.007 3.61185 127.546 4.12249H127.599C151.695 4.81255 178.299 5.4612 184.249 4.89535C184.775 4.84015 185.139 4.77114 185.328 4.70214C189.078 3.23922 249.775 -0.666502 252.338 0.299577C254.348 1.05864 257.694 2.57676 259.529 4.72974C260.15 7.08973 254.038 2.65957 253.687 2.81138L253.66 2.82518Z" fill="#E5E0E5"/>
</g>
<g style="mix-blend-mode:multiply" opacity="0.5">
<path d="M255.981 74.881L254.2 77.2686C241.599 78.0967 210.88 78.1657 201.72 76.9926C190.252 75.5296 90.6203 77.4756 76.1983 76.7441C61.7628 76.0127 12.1425 74.0529 12.1425 74.0529C8.00073 72.0794 4.3986 70.1334 2.41541 67.7872L7.06984 64.1161C9.28238 63.6745 12.0885 62.7636 14.5979 63.8125C17.1072 64.8614 20.6419 65.3168 22.2473 65.9241C23.8798 66.5175 173.82 64.6819 179.459 65.1236C185.099 65.579 246.578 68.7533 247.9 69.1949C249.222 69.6504 255.967 74.8534 255.967 74.8534L255.981 74.881Z" fill="#E5E0E5"/>
</g>
<path fill-rule="evenodd" clip-rule="evenodd" d="M127.532 4.13633C118.992 4.34335 91.2679 5.0196 86.546 5.0196C80.9472 5.0196 10.1728 1.54172 8.70227 1.69353C7.23174 1.84534 3.40026 5.17142 3.40026 5.17142L3.08997 3.33587C3.65659 2.09376 4.22322 1.11388 4.64144 0.810259C6.01754 -0.169621 73.0279 2.77002 87.8681 3.00464C93.8042 3.10125 110.007 3.62569 127.546 4.13633H127.532Z" fill="#A486A8"/>
<g style="mix-blend-mode:soft-light">
<path fill-rule="evenodd" clip-rule="evenodd" d="M15.7041 11.5475C13.4916 11.0921 12.3448 14.9702 12.3448 16.6815C12.3448 18.3929 13.9233 36.9554 13.7344 40.8611C13.5456 44.7668 11.9536 60.1551 12.5472 61.618C13.1408 63.0809 19.6705 65.0407 21.0466 65.0407C22.4227 65.0407 176.033 63.5778 179.581 64.0608C183.129 64.5438 246.591 68.698 247.387 67.9665C248.183 67.2351 252.136 63.564 251.731 61.135C251.34 58.6922 247.981 45.9951 247.981 42.8209C247.981 39.6466 250.544 14.984 250.544 14.984C250.544 14.984 248.25 10.816 245.485 10.816C242.719 10.816 191.048 16.9437 185.314 16.9437C179.581 16.9437 18.0786 12.0581 15.7041 11.5751V11.5475Z" fill="#E6DAE6"/>
</g>
<g style="mix-blend-mode:multiply" opacity="0.3">
<path fill-rule="evenodd" clip-rule="evenodd" d="M42.4435 31.2141C40.1635 36.6517 31.3808 44.3252 30.0722 45.1256C28.3993 46.1055 23.2322 40.4747 21.7886 37.2038C20.3586 33.9191 20.2372 21.2911 23.448 20.0076C25.9979 18.9863 39.7048 22.9472 42.5784 27.474C43.1855 28.4401 43.0506 29.7374 42.4435 31.2003V31.2141Z" fill="#B9A4A8"/>
<path fill-rule="evenodd" clip-rule="evenodd" d="M59.6716 20.9461C57.6884 24.0928 52.2785 28.9645 50.754 29.627C49.4454 30.179 45.2092 27.8191 42.6593 25.2934C41.1348 23.7753 40.204 22.1882 40.9055 21.1393C43.3339 17.5096 57.7154 17.068 60.0359 18.4205C60.67 18.7931 60.4271 19.7316 59.6581 20.9323L59.6716 20.9461Z" fill="#B9A4A8"/>
<path fill-rule="evenodd" clip-rule="evenodd" d="M238.146 52.4818C236.109 56.981 232.425 61.7148 230.334 61.6458C229.957 61.6458 229.592 61.5216 229.228 61.3283C225.923 59.5756 223.791 50.8395 228.338 46.4921C229.997 44.905 232.21 43.8837 237.849 44.6704C240.439 45.043 239.873 48.6589 238.146 52.4818Z" fill="#B9A4A8"/>
<g style="mix-blend-mode:multiply" opacity="0.5">
<path d="M42.4435 31.2142C42.3761 30.3309 42.1467 27.9433 41.7285 27.3361C41.2158 26.5908 34.6187 23.5684 33.7687 23.458C32.9188 23.3476 27.5763 20.8496 24.8106 21.1256C22.045 21.3878 21.168 33.795 22.1529 37.1901C23.1512 40.5852 30.0722 45.1396 30.0722 45.1396C28.3993 46.1194 23.2322 40.4886 21.7886 37.2177C20.3586 33.933 20.2372 21.305 23.448 20.0215C25.9979 19.0002 39.7048 22.9611 42.5784 27.4879C43.1855 28.454 43.0506 29.7513 42.4435 31.2142Z" fill="#BE9AB6"/>
</g>
<g style="mix-blend-mode:multiply" opacity="0.5">
<path d="M59.6716 20.9461C59.7796 20.1594 59.874 19.1933 59.7931 18.9863C59.6581 18.6137 58.6598 17.9098 53.1015 18.1169C47.5431 18.3101 42.5379 20.2284 41.9578 20.9461C41.3777 21.6499 41.3507 22.9887 41.6475 23.6373C41.7824 23.9271 42.2006 24.631 42.6593 25.3072C41.1348 23.7891 40.204 22.202 40.9055 21.1531C43.3339 17.5234 57.7154 17.0818 60.0359 18.4343C60.67 18.8069 60.4271 19.7454 59.6581 20.9461H59.6716Z" fill="#BE9AB6"/>
</g>
<g style="mix-blend-mode:multiply" opacity="0.5">
<path d="M238.146 52.4818C239.333 45.6503 238.604 45.8711 238.483 45.6226C238.335 45.3466 233.545 45.2362 231.225 45.4294C228.904 45.6226 225.882 52.5922 226.354 55.6837C226.705 57.9333 228.351 60.238 229.228 61.3283C225.923 59.5756 223.791 50.8395 228.338 46.4921C229.997 44.905 232.21 43.8837 237.849 44.6704C240.439 45.043 239.873 48.6589 238.146 52.4818Z" fill="#BE9AB6"/>
</g>
</g>
<path fill-rule="evenodd" clip-rule="evenodd" d="M263.442 67.5526C263.388 67.7182 263.334 67.87 263.28 68.0356C263.172 68.3668 263.05 68.7119 262.929 69.0707C261.877 72.0241 260.339 75.64 259.651 76.5095C259.651 76.5095 259.61 76.5509 259.597 76.5647C259.556 76.5923 259.529 76.6061 259.489 76.6199C259.421 76.6613 259.327 76.6889 259.205 76.7165C259.043 76.7579 258.882 76.7855 258.679 76.8269C258.504 76.8683 258.288 76.8959 258.059 76.9235C257.937 76.9235 257.816 76.9511 257.681 76.9788C256.79 77.0754 255.63 77.172 254.227 77.2686C254.133 77.2686 254.038 77.2962 253.944 77.2962C253.445 77.3376 252.932 77.3514 252.379 77.3928C252.082 77.3928 251.772 77.4204 251.448 77.4342C248.48 77.586 244.878 77.6964 240.992 77.7792C240.911 77.7792 240.83 77.7792 240.749 77.7792C238.254 77.8206 235.636 77.8482 232.992 77.8758C225.639 77.931 218.003 77.8758 211.852 77.655H211.798C211.244 77.6274 210.691 77.5998 210.165 77.5998C208.803 77.5446 207.548 77.4756 206.388 77.4204C205.915 77.3928 205.47 77.3652 205.052 77.3376C203.77 77.2548 202.664 77.1444 201.76 77.034C190.293 75.571 90.6608 77.5308 76.2388 76.7855C75.7531 76.7579 75.227 76.7303 74.6738 76.7165C74.3096 76.6889 73.9453 76.6751 73.5406 76.6613C73.1628 76.6613 72.7851 76.6337 72.3803 76.6061C72.097 76.6061 71.7867 76.5785 71.4899 76.5647C71.1122 76.5371 70.7479 76.5233 70.3432 76.5095C69.7765 76.5095 69.1829 76.4681 68.5893 76.4405C68.4949 76.4405 68.387 76.4405 68.2925 76.4405C67.3616 76.3991 66.3903 76.3577 65.3919 76.3163C64.8793 76.2887 64.3396 76.2611 63.7865 76.2473C62.6128 76.1921 61.3851 76.1507 60.1304 76.0817C59.5368 76.0541 58.9297 76.0265 58.3091 76.0127C57.6615 75.9713 57.0139 75.9575 56.3529 75.9299C55.476 75.8885 54.5586 75.8609 53.6412 75.8195C53.196 75.7918 52.7508 75.778 52.3055 75.7642C49.8502 75.6676 47.3408 75.5572 44.818 75.4606C44.2648 75.433 43.7117 75.4054 43.1586 75.3916C42.9427 75.3916 42.7134 75.3916 42.484 75.364C41.688 75.3226 40.9055 75.3088 40.1231 75.2674C39.6779 75.2674 39.2327 75.226 38.774 75.2122C37.9375 75.1708 37.1011 75.1432 36.2781 75.1018H36.1432C33.2291 74.9776 30.423 74.8672 27.8327 74.7706C27.3335 74.743 26.8208 74.7154 26.3216 74.7154C25.9304 74.6878 25.5661 74.674 25.2019 74.6602C24.986 74.6602 24.7837 74.6602 24.5813 74.6326C24.0686 74.6049 23.556 74.5911 23.0838 74.5773C22.733 74.5773 22.3957 74.5498 22.0719 74.5359C20.7498 74.4807 19.5221 74.4255 18.4159 74.3841C18.3214 74.3841 18.227 74.3841 18.1325 74.3841C17.6873 74.3565 17.2556 74.3427 16.8509 74.3289C16.5406 74.3289 16.2438 74.3013 15.974 74.2875C15.178 74.2461 14.4899 74.2323 13.9233 74.2047H13.7344C13.0329 74.1633 12.5607 74.1495 12.3314 74.1495H12.183C11.5354 73.8459 10.9013 73.5285 10.2942 73.2248C9.98391 73.073 9.68711 72.9212 9.3903 72.7694C6.44924 71.2375 3.96687 69.6642 2.45587 67.87C2.36143 67.7596 2.28048 67.663 2.18604 67.5526C2.07811 67.4284 1.99717 67.3042 1.91622 67.1661C1.82178 67.0419 1.74084 66.9039 1.67338 66.7797C1.52498 66.5451 1.40356 66.3105 1.29563 66.0759C1.1877 65.8274 1.10675 65.5238 1.05279 65.165C1.02581 65.0546 1.01232 64.9304 0.998825 64.7924C0.836932 63.3708 0.93137 61.3283 1.13374 58.9407C1.25516 57.5192 1.41705 55.9596 1.59243 54.3725C1.86226 51.8055 2.15906 49.1005 2.33445 46.5749C2.38841 45.7606 2.42888 44.9601 2.45587 44.1873C2.49634 43.304 2.50983 42.4345 2.48285 41.6341C2.48285 41.358 2.48285 41.0682 2.44237 40.7784C2.07811 32.1527 -0.485197 12.9415 0.0814295 11.2992C0.189358 10.9817 0.364743 10.4435 0.607583 9.78104C0.661548 9.58783 0.742494 9.38081 0.80995 9.1738C1.07977 8.41473 1.39007 7.53146 1.72735 6.62059C1.86226 6.27556 1.99717 5.91673 2.13208 5.5579C2.33445 5.04726 2.52332 4.56422 2.73918 4.09498C2.84711 3.83276 2.95504 3.58434 3.07646 3.32212C3.23835 2.94949 3.41374 2.59066 3.57563 2.27323C3.68356 2.06621 3.79149 1.873 3.89942 1.69358C3.95338 1.59697 4.02084 1.50037 4.08829 1.40376C4.15575 1.30715 4.2232 1.22434 4.27717 1.14154C4.33113 1.05873 4.39859 0.989724 4.43906 0.948321C4.49302 0.893116 4.54699 0.837912 4.60095 0.796509C4.60095 0.796509 4.04782 2.78387 3.45421 5.06106C2.94155 7.10363 2.38841 9.40841 2.19953 10.7471C2.19953 10.8161 2.19953 10.9127 2.17255 10.9817C2.14557 11.0507 2.17255 11.1198 2.17255 11.175C2.14557 11.3682 2.14557 11.5338 2.17255 11.658C2.17255 11.7132 2.17255 11.7408 2.17255 11.7822C2.46936 13.0657 6.03101 35.3407 6.43575 40.2125C6.46273 40.5024 6.47622 40.7232 6.47622 40.8888C6.47622 41.6617 6.26036 43.4558 5.96356 45.7192C5.92308 45.9952 5.8961 46.2574 5.84214 46.5611C5.81515 46.7405 5.78817 46.9337 5.77468 47.1269C4.96521 53.1166 3.81847 61.2593 4.41208 63.081C4.60095 63.6745 5.05965 64.4197 5.65326 65.234C7.81184 68.146 11.8592 71.8723 12.6686 71.9827C12.8305 72.0103 15.0836 72.1346 18.7531 72.314H18.7801C37.1011 73.2386 90.5798 75.7642 96.1112 75.7642C102.749 75.7642 184.424 73.4871 194.893 74.2461C204.094 74.9086 236.189 75.571 246.928 75.3226H246.955C248.426 75.2674 249.478 75.226 250.031 75.157C251.327 74.9914 252.757 74.3565 254.119 73.5147C256.655 71.9689 259.07 69.6779 260.514 68.1046L260.554 68.0632C261.054 67.4974 261.458 67.0281 261.674 66.7245C262.632 65.3858 262.241 57.464 262.052 54.4553C262.929 59.9067 263.765 64.6681 263.968 65.0546C264.089 65.2754 263.86 66.2553 263.428 67.594L263.442 67.5526Z" fill="url(#paint1_linear_3274_22862)"/>
<path fill-rule="evenodd" clip-rule="evenodd" d="M260.123 27.9432C259.988 20.0904 259.812 10.4848 259.745 9.49113C259.624 7.79359 254.767 4.17769 253.66 3.37723C252.554 2.59056 241.384 2.35595 238.065 2.59056C234.746 2.82518 184.222 5.07477 184.222 5.07477V4.89535C184.761 4.84015 185.126 4.77114 185.314 4.70214C189.065 3.23922 249.762 -0.666502 252.325 0.299577C254.902 1.27946 259.651 3.47384 260.635 6.6481C261.269 8.66306 260.541 18.9311 260.136 27.9156L260.123 27.9432Z" fill="#A486A8"/>
<g style="mix-blend-mode:multiply" opacity="0.5">
<path fill-rule="evenodd" clip-rule="evenodd" d="M12.2909 74.0667H12.1425C6.9889 71.6239 2.65825 69.1811 1.25518 66.0068C1.10678 65.6756 1.01234 65.2477 0.958374 64.7371C1.525 63.8676 2.15908 63.3294 2.92808 63.633C4.69541 64.3645 11.9941 72.3415 12.2639 73.1834C12.3314 73.3766 12.3179 73.6802 12.2639 74.0667H12.2909Z" fill="#7D64A6"/>
</g>
<g style="mix-blend-mode:multiply" opacity="0.5">
<path fill-rule="evenodd" clip-rule="evenodd" d="M263.28 68.0356C262.254 71.0995 260.433 75.5296 259.651 76.5095C259.34 76.8959 256.17 77.1858 251.434 77.4204C254.618 74.3703 262.821 66.1725 263.172 66.3933C263.266 66.4623 263.307 67.0833 263.28 68.0356Z" fill="#7D64A6"/>
</g>
<g style="mix-blend-mode:multiply" opacity="0.5">
<path fill-rule="evenodd" clip-rule="evenodd" d="M5.74765 41.289C5.59925 42.1585 3.31925 41.8962 3.0899 41.5098C2.87404 41.1372 -0.228917 11.5752 0.661497 12.0306C1.55191 12.486 6.78646 35.3269 5.74765 41.289Z" fill="#7D64A6"/>
</g>
<path fill-rule="evenodd" clip-rule="evenodd" d="M2.21299 11.7959C2.21299 11.7959 3.81843 5.64064 4.42553 5.36461C5.03263 5.08859 8.51334 2.7562 8.74269 3.04602C8.97204 3.33585 12.0075 10.3468 12.3853 10.5124C12.7765 10.678 13.0464 10.9127 12.9384 11.7545C12.8305 12.5964 11.6163 14.8046 11.6163 16.7919C11.6163 18.7793 13.8288 37.6041 13.8288 37.6041C13.8288 37.6041 12.3043 16.6401 12.6686 15.9363C13.0329 15.2324 14.7327 11.8235 15.2319 11.6993C15.7311 11.5613 48.6629 12.8448 48.2177 12.7344C47.7725 12.624 14.4899 10.3606 13.7209 9.90518C12.9519 9.44975 10.0378 2.85281 10.1862 2.54918C10.3346 2.24556 16.1628 2.48018 17.0802 2.48018C17.9976 2.48018 30.4229 2.63199 30.4229 2.63199C30.4229 2.63199 9.01251 1.30708 8.5673 1.34848C8.1221 1.38989 3.50813 5.04719 3.40021 5.1576C3.29228 5.26801 2.06459 10.4434 2.21299 11.7959Z" fill="#614F64"/>
<path fill-rule="evenodd" clip-rule="evenodd" d="M6.38177 43.0417C6.38177 43.0417 4.88425 61.3144 5.00567 61.6457C5.1136 61.9907 5.58579 64.1851 5.69372 64.2127C5.80165 64.2403 6.85396 63.4812 6.9349 63.426C7.01585 63.3708 11.387 62.5842 11.5489 62.3771C11.7108 62.1839 12.048 56.6911 12.102 56.208C12.156 55.725 13.1813 47.3615 13.1813 47.3615C13.1813 47.3615 12.7631 60.376 12.9654 60.9004C13.1543 61.4387 20.5609 64.4335 20.8173 64.5439C21.0601 64.6543 41.769 64.1437 42.457 64.2265C43.1451 64.3093 54.1268 64.6543 54.1268 64.6543C54.1268 64.6543 23.556 65.5928 22.1934 65.6756C20.8442 65.7584 16.9588 64.9303 16.7699 64.8337C16.5945 64.7371 12.6282 63.4674 12.3314 63.5088C12.0345 63.5502 7.60946 64.4611 7.12378 64.9027C6.6381 65.3582 7.11029 66.4899 7.19124 66.5727C7.27218 66.6555 11.8727 71.1823 12.2099 71.3893C12.5472 71.5963 19.2253 72.3553 19.2253 72.3553C19.2253 72.3553 12.5877 72.3415 12.4123 72.2587C12.2234 72.1897 8.39194 68.7947 8.21656 68.6566C8.04118 68.5186 3.27881 63.1914 3.40023 62.667C3.52165 62.1425 6.38177 43.0417 6.38177 43.0417Z" fill="#614F64"/>
<path fill-rule="evenodd" clip-rule="evenodd" d="M238.065 2.60437C238.065 2.60437 250.949 3.51524 251.057 3.68086C251.165 3.84647 250.719 5.08857 250.719 5.08857C250.719 5.08857 247.738 9.32552 247.131 9.38072C246.524 9.43593 235.245 11.6441 234.746 11.6993C234.247 11.7545 214.617 13.9627 214.617 13.9627C214.617 13.9627 234.625 12.831 235.016 12.7758C235.407 12.7206 245.35 11.5337 245.957 11.7545C246.564 11.9753 249.438 14.4733 249.6 14.7494C249.762 15.0254 248.831 31.78 248.831 31.78C248.831 31.78 251.434 15.1496 251.92 14.5285C252.419 13.9075 248.439 10.9679 249.047 10.1122C249.654 9.25651 254.241 5.25419 255.023 5.3646C255.792 5.47501 258.949 8.92529 259.057 9.38072C259.165 9.83616 259.772 14.0179 259.772 14.0179C259.772 14.0179 260.109 8.75967 259.988 8.08342C259.866 7.40716 253.134 2.36975 253.134 2.36975L238.038 2.59057L238.065 2.60437Z" fill="#A486A8"/>
<path fill-rule="evenodd" clip-rule="evenodd" d="M223.09 66.9038C223.09 66.9038 245.593 69.2224 246.254 69.4432C246.915 69.664 251.178 71.8722 251.178 71.8722C251.178 71.8722 252.122 73.4593 251.947 73.7906C251.785 74.1356 246.308 75.4881 246.524 75.3777C246.74 75.2673 251.34 75.4329 251.826 75.3777C252.311 75.3225 255.914 72.8383 256.359 72.6037C256.804 72.3828 260.892 67.7457 260.892 67.7457C260.892 67.7457 256.305 71.817 254.807 71.817C253.31 71.817 248.224 68.7117 248.224 68.5323C248.224 68.3529 252.365 63.5501 252.864 63.0395C253.364 62.5288 252.365 57.7812 252.203 57.4914C252.042 57.2154 247.954 42.7794 247.954 42.7794C247.954 42.7794 250.76 57.9469 250.76 59.0786C250.76 60.2102 249.1 64.9578 248.601 65.6893C248.102 66.4208 245.229 67.8975 245.229 67.8975L223.063 66.8762L223.09 66.9038Z" fill="#A486A8"/>
<path fill-rule="evenodd" clip-rule="evenodd" d="M86.6 14.0179C86.6 14.0179 109.292 14.3216 111.424 14.363C113.555 14.4044 136.342 15.191 136.342 15.191L157.847 16.1847L124.429 15.6327L86.6 14.0179Z" fill="#A486A8"/>
<g style="mix-blend-mode:multiply" opacity="0.3">
<path d="M17.9167 56.2218C14.7328 52.0401 14.382 18.8898 20.1293 16.1847C25.8765 13.4797 168.747 21.7604 184.667 19.9525C200.586 18.1445 247.104 8.63553 247.104 16.792C247.104 24.9485 247.468 43.0003 246.591 42.6553C245.701 42.3103 216.074 24.6724 206.347 23.5407C196.62 22.4091 34.2949 77.724 17.9302 56.2356L17.9167 56.2218Z" fill="#E5E0E5"/>
</g>
<path fill-rule="evenodd" clip-rule="evenodd" d="M150.494 64.2127C150.912 67.2903 142.494 71.3479 136.234 65.6066C136.099 65.4824 136.058 65.3168 136.112 65.1512C136.598 63.5226 144.382 60.1138 149.118 62.5566C149.995 62.9982 150.426 63.5916 150.494 64.2127Z" fill="url(#paint2_linear_3274_22862)"/>
<path fill-rule="evenodd" clip-rule="evenodd" d="M155.634 66.2828C154.784 65.7998 154.582 65.1511 154.798 64.5301C155.297 63.0396 158.251 61.6457 160.1 62.6531C161.084 63.1776 161.543 63.7572 161.624 64.2817C161.975 66.1172 157.9 67.5939 155.62 66.2828H155.634Z" fill="url(#paint3_linear_3274_22862)"/>
<path d="M150.494 64.2127C150.912 67.2904 142.494 71.3479 136.234 65.6066C136.099 65.4824 136.058 65.3168 136.112 65.1512C136.126 64.2817 139.93 68.4911 144.45 67.2075C148.619 66.0345 150.062 64.0885 150.494 64.2127Z" fill="#8D739C"/>
<path d="M155.634 66.2828C154.784 65.7997 154.582 65.1511 154.798 64.53C154.865 64.5576 154.946 64.6128 155.027 64.7233C155.337 65.0959 156.605 66.131 158.872 65.7169C160.909 65.3305 161.341 64.185 161.638 64.2954C161.988 66.131 157.914 67.6077 155.634 66.2966V66.2828Z" fill="#8D739C"/>
<g style="mix-blend-mode:multiply">
<path d="M136.854 64.2265C136.072 64.7509 139.863 66.8901 143.6 66.2829C147.337 65.6756 150.737 63.9643 149.887 63.0948C149.037 62.2253 143.654 59.6307 136.854 64.2265Z" fill="#DEA0BB"/>
</g>
<g style="mix-blend-mode:multiply">
<path d="M154.933 64.1988C154.771 64.4749 155.985 65.1097 158.521 64.8337C161.057 64.5577 161.624 63.7848 161.179 63.3846C160.734 62.9843 156.943 60.5691 154.933 64.1988Z" fill="#DEA0BB"/>
</g>
<path fill-rule="evenodd" clip-rule="evenodd" d="M0.0408349 15.0392C0.0408349 15.0392 2.65811 17.6338 3.04935 17.689C3.4406 17.7442 11.6837 16.4193 12.4931 16.4193C13.3026 16.4193 21.829 10.816 22.6115 10.4434C23.394 10.0708 50.2548 8.48364 51.1857 8.40084C52.1165 8.31803 77.6417 5.29558 80.7312 5.40599C83.8207 5.5164 108.051 8.69066 110.749 8.62165C113.447 8.55265 128.449 4.02588 128.449 4.02588L130.028 4.06728L124.523 8.22142L112.044 11.5061L98.445 10.3606L85.3991 10.0156L73.7023 13.8109L44.6964 12.279L34.4972 18.7931L17.8221 18.4067L4.72225 20.9323L0.229711 16.3917L0.0273438 15.0392H0.0408349Z" fill="url(#paint4_linear_3274_22862)"/>
<path fill-rule="evenodd" clip-rule="evenodd" d="M0.243286 16.3918C0.243286 16.3918 3.17086 19.4418 3.50814 19.4418C3.84541 19.4418 11.2116 18.2273 12.5607 18.462C13.9098 18.6966 26.0113 13.1071 29.1682 11.9616C32.3117 10.8161 58.0257 10.8851 64.3935 10.1261C70.7613 9.35321 77.1292 6.97942 81.3384 7.13123C85.5341 7.28304 108.847 10.4987 112.139 9.73965C115.43 8.96678 130.055 4.06738 130.055 4.06738H133.954C133.954 4.06738 118.142 11.9616 114.918 12.4171C111.693 12.8725 102.546 11.727 101.13 11.727C99.7133 11.727 76.1713 13.949 74.5254 14.57C72.8795 15.1773 49.6747 12.5275 48.2312 12.7483C46.7876 12.9691 40.7976 19.4418 38.8279 20.5873C36.8582 21.7328 22.8679 18.6276 20.7903 19.2072C18.7126 19.7869 13.3297 20.3941 12.844 20.5459C12.3583 20.6977 4.83027 26.1768 4.26364 25.8732C3.69701 25.5695 0.553582 20.0077 0.553582 20.0077L0.270268 16.3918H0.243286Z" fill="url(#paint5_linear_3274_22862)"/>
<path fill-rule="evenodd" clip-rule="evenodd" d="M181.753 65.096C181.753 65.096 180.741 63.7159 181.523 62.9154C182.306 62.1149 195.797 54.5795 196.472 53.5444C197.146 52.5093 202.597 38.8186 204.054 37.9629C205.511 37.1073 218.381 28.4678 219.676 28.937C220.971 29.3924 236.365 39.0532 239.522 39.2879C242.665 39.5225 247.562 34.6231 248.574 34.4575C249.586 34.2918 259.988 33.1878 259.988 33.1878L259.88 34.3333L258.301 36.0584L248.075 37.1487L243.69 41.3442L238.402 40.944L226.206 37.4385L217.437 36.1688L206.415 45.595L199.615 56.4013L181.739 65.0822L181.753 65.096Z" fill="url(#paint6_linear_3274_22862)"/>
<path fill-rule="evenodd" clip-rule="evenodd" d="M210.313 43.5938C210.313 43.5938 212.283 53.3097 213.686 55.2695C215.089 57.2293 230.78 64.7647 231.333 65.3857C231.899 66.0206 232.237 67.1661 232.237 67.1661L230.833 67.4559L209.194 58.1953L208.182 44.9187L210.313 43.5938Z" fill="url(#paint7_linear_3274_22862)"/>
<path fill-rule="evenodd" clip-rule="evenodd" d="M198.279 76.7164C198.279 76.7164 186.812 74.5359 186.03 74.1908C185.247 73.8458 181.982 66.1448 181.753 65.1097C181.523 64.0746 195.352 57.9745 197.497 55.7939C199.642 53.6134 203.339 41.5374 206.711 38.8876C210.084 36.2377 217.734 32.2216 219.42 31.0623C221.106 29.903 235.717 39.7984 240.331 40.033C244.945 40.2677 248.763 35.7823 248.763 35.7823L259.893 34.347L260.001 37.5074C260.001 37.5074 251.003 36.707 248.642 37.7421C246.281 38.7771 244.487 42.3378 242.463 42.9175C240.439 43.4971 225.599 37.397 221.444 38.1975C217.288 38.998 211.325 42.2274 210.314 43.6075C209.302 44.9876 210.543 54.7589 212.782 57.174C215.035 59.5892 232.237 66.7244 232.237 67.1799C232.237 67.6353 229.093 74.3151 229.201 75.0051C229.309 75.6952 229.876 78 229.876 78L225.599 77.6549L225.491 74.8947C225.491 74.8947 231.454 69.0292 229.309 67.8837C227.177 66.7382 210.314 62.0182 209.18 59.9481C208.047 57.8779 207.265 53.6272 205.362 54.8831C203.447 56.1528 189.955 63.2741 189.281 65.5789C188.606 67.8837 187.365 73.1696 189.618 73.97C191.871 74.7705 201.706 77.0201 201.706 77.0201L198.266 76.7303L198.279 76.7164Z" fill="url(#paint8_linear_3274_22862)"/>
<path fill-rule="evenodd" clip-rule="evenodd" d="M15.9875 18.7517C18.1865 18.9863 24.244 17.7718 26.7264 17.896C29.1953 18.0064 35.6036 20.256 38.1399 18.3515C40.6762 16.4469 48.9867 12.2514 46.9091 12.3066C44.8315 12.3618 29.2088 13.5211 27.0637 14.6666C24.9186 15.8121 14.9217 18.6413 15.9875 18.7517Z" fill="#FF6F00"/>
<path fill-rule="evenodd" clip-rule="evenodd" d="M65.8506 12.5411C65.1086 12.2927 76.3063 8.40081 79.1664 8.51122C82.0265 8.62162 95.9223 9.36689 95.3557 10.0017C94.7891 10.6366 79.2743 12.4721 76.4142 12.762C73.5541 13.0518 66.0125 12.5964 65.8506 12.5273V12.5411Z" fill="#FF6F00"/>
<path fill-rule="evenodd" clip-rule="evenodd" d="M113.555 10.6642C112.166 11.092 107.929 10.9264 109.805 11.5061C111.68 12.0857 115.538 11.3129 116.699 10.9264C117.859 10.54 124.308 7.28294 123.215 7.62796C122.122 7.97299 113.542 10.6504 113.542 10.6504L113.555 10.6642Z" fill="#FF6F00"/>
<path fill-rule="evenodd" clip-rule="evenodd" d="M196.202 59.1201C195.811 59.1201 198.333 57.1051 198.9 56.3598C199.467 55.6146 204.296 41.9791 206.374 40.944C208.452 39.9089 222.563 33.4086 221.997 34.278C221.43 35.1475 209.41 41.634 208.398 43.304C207.386 44.9739 210.367 56.9395 211.379 57.6847C212.391 58.43 214.914 60.1552 214.185 60.2794C213.457 60.3898 210.813 59.3547 210.192 58.9545C209.571 58.5542 206.927 50.9084 206.374 51.0188C205.807 51.1292 198.792 59.1891 196.202 59.1339V59.1201Z" fill="#FF6F00"/>
<path fill-rule="evenodd" clip-rule="evenodd" d="M186.178 72.6451C185.841 72.2587 182.36 65.8964 183.183 65.2891C184.006 64.6819 190.225 60.8865 189.632 62.6807C189.038 64.4886 187.041 73.6388 186.178 72.6451Z" fill="#FF6F00"/>
<path fill-rule="evenodd" clip-rule="evenodd" d="M235.326 40.1435C236.432 40.9163 240.749 43.0417 242.153 42.5035C243.556 41.9514 245.525 39.9089 244.878 40.0607C244.23 40.1987 243.502 40.8887 241.397 40.7231C239.292 40.5575 234.598 39.6328 235.326 40.1435Z" fill="#FF6F00"/>
<path fill-rule="evenodd" clip-rule="evenodd" d="M15.9875 18.7517C17.3771 17.6753 25.0805 14.2664 28.858 14.1836C32.649 14.1008 43.6982 13.0657 40.6223 15.2601C37.5463 17.4406 14.9891 19.5108 15.9875 18.7517Z" fill="#FFC700"/>
<path fill-rule="evenodd" clip-rule="evenodd" d="M79.7869 9.04956C76.3602 9.39459 68.9941 10.5401 72.1375 11.2025C75.2809 11.8512 87.7602 10.6643 86.3436 10.2779C84.9136 9.89143 83.1597 8.70453 79.7869 9.04956Z" fill="#FFC700"/>
<path fill-rule="evenodd" clip-rule="evenodd" d="M115.39 10.3469C114.662 10.3055 112.921 11.865 114.041 11.4648C115.161 11.0645 116.766 10.4297 115.39 10.3469Z" fill="#FFC700"/>
<path fill-rule="evenodd" clip-rule="evenodd" d="M118.129 9.49121C117.481 9.44981 116.159 9.72583 116.955 9.97425C117.751 10.2227 118.925 9.54642 118.129 9.49121Z" fill="#FFC700"/>
<path fill-rule="evenodd" clip-rule="evenodd" d="M200.87 54.1655C201.719 52.3576 205.821 40.254 206.32 42.959C206.819 45.664 208.452 50.0252 207.777 50.2046C207.102 50.384 207.048 49.1143 205.416 50.2046C203.784 51.2949 200.249 55.4904 200.87 54.1793V54.1655Z" fill="#FFC700"/>
<path fill-rule="evenodd" clip-rule="evenodd" d="M215.939 36.9831C213.659 37.0935 209.639 39.8537 211.271 39.8537C212.904 39.8537 217.113 36.9279 215.939 36.9831Z" fill="#FFC700"/>
<path fill-rule="evenodd" clip-rule="evenodd" d="M184.451 66.8211C183.642 68.8498 186.812 72.1069 186.974 70.9614C187.136 69.8159 185.854 63.3156 184.451 66.8211Z" fill="#FFC700"/>
<path fill-rule="evenodd" clip-rule="evenodd" d="M226.57 77.0615C226.57 76.0954 227.474 71.9689 228.365 72.8798C229.269 73.8044 226.57 77.6274 226.57 77.0615Z" fill="#FFC700"/>
<path fill-rule="evenodd" clip-rule="evenodd" d="M238.159 41.0543C239.211 41.841 241.249 42.6414 242.179 41.8272C243.11 41.0129 236.338 39.7018 238.159 41.0543Z" fill="#FFC700"/>
<path fill-rule="evenodd" clip-rule="evenodd" d="M234.517 39.7985C234.274 40.944 236.068 41.0958 236.122 40.5714C236.176 40.0469 234.571 39.5363 234.517 39.7985Z" fill="#FFC700"/>
<g style="mix-blend-mode:multiply">
<path fill-rule="evenodd" clip-rule="evenodd" d="M208.762 55.5731C207.953 55.7801 207.507 55.1176 207.305 54.3172C207.076 53.4201 207.143 52.3436 207.332 52.0952C207.696 51.6398 209.585 51.6674 210.394 52.4402C211.217 53.2269 210.475 55.1453 208.762 55.5731Z" fill="#D96376"/>
</g>
<g style="mix-blend-mode:multiply">
<path fill-rule="evenodd" clip-rule="evenodd" d="M207.75 52.5092C207.265 53.0199 207.372 54.0274 208.047 54.055C208.722 54.0826 209.841 53.848 209.679 53.2131C209.518 52.5782 208.236 51.9848 207.75 52.5092Z" fill="#DB6D0F"/>
</g>
<g style="mix-blend-mode:multiply">
<path fill-rule="evenodd" clip-rule="evenodd" d="M208.762 55.5732C207.952 55.7802 207.507 55.1177 207.305 54.3173C207.521 54.6485 207.885 54.9245 208.438 54.8831C209.787 54.7865 210.975 53.9722 210.394 52.4403C211.217 53.227 210.475 55.1453 208.762 55.5732Z" fill="#DB6D0F"/>
</g>
<g style="mix-blend-mode:multiply">
<path fill-rule="evenodd" clip-rule="evenodd" d="M194.542 58.7749C194.569 58.9543 194.515 59.1752 194.394 59.4236C194.165 59.9204 193.706 60.5139 193.153 61.0935C191.736 62.5702 189.672 63.9366 189.092 63.1913C188.998 63.0671 189.092 62.8049 189.321 62.4736C190.009 61.4662 191.898 59.7548 193.207 58.9543C193.935 58.5127 194.488 58.3609 194.542 58.7749Z" fill="#D96376"/>
</g>
<g style="mix-blend-mode:multiply">
<path fill-rule="evenodd" clip-rule="evenodd" d="M192.64 59.4651C192.1 59.7135 190.333 61.4249 190.954 61.5767C191.574 61.7285 194.07 60.2794 193.652 59.962C193.234 59.6583 193.058 59.2719 192.64 59.4651Z" fill="#DB6D0F"/>
</g>
<g style="mix-blend-mode:multiply">
<path fill-rule="evenodd" clip-rule="evenodd" d="M189.78 62.7082C190.252 62.722 191.925 61.9078 193.153 61.0935C191.736 62.5702 189.672 63.9365 189.092 63.1913C188.998 63.0671 189.092 62.8048 189.321 62.4736C189.389 62.5978 189.524 62.6944 189.78 62.7082Z" fill="#DB6D0F"/>
</g>
<g style="mix-blend-mode:multiply">
<path fill-rule="evenodd" clip-rule="evenodd" d="M194.542 58.7749C194.569 58.9543 194.515 59.1752 194.394 59.4236C194.097 59.12 193.531 59.0234 193.207 58.9543C193.935 58.5127 194.488 58.3609 194.542 58.7749Z" fill="#DB6D0F"/>
</g>
<path style="mix-blend-mode:screen" opacity="0.5" d="M209.152 72.9224C224.099 71.0504 234.732 57.1377 232.902 41.8475C231.072 26.5573 217.472 15.6797 202.525 17.5516C187.578 19.4236 176.945 33.3363 178.775 48.6265C180.605 63.9167 194.205 74.7943 209.152 72.9224Z" fill="url(#paint9_radial_3274_22862)"/>
<path style="mix-blend-mode:screen" opacity="0.5" fill-rule="evenodd" clip-rule="evenodd" d="M217.046 45.0981C218.516 54.2758 210.867 62.0873 201.909 60.5829C196.472 59.6721 192.101 55.1867 191.21 49.6386C189.74 40.4609 197.389 32.6494 206.347 34.1538C211.784 35.0646 216.155 39.55 217.046 45.0981Z" fill="url(#paint10_radial_3274_22862)"/>
<path style="mix-blend-mode:screen" opacity="0.5" fill-rule="evenodd" clip-rule="evenodd" d="M224.83 36.5138C226.3 45.6916 218.651 53.503 209.693 51.9987C204.256 51.0878 199.885 46.6025 198.994 41.0544C197.524 31.8767 205.173 24.0652 214.131 25.5695C219.568 26.4804 223.939 30.9658 224.83 36.5138Z" fill="url(#paint11_radial_3274_22862)"/>
<defs>
<linearGradient id="paint0_linear_3274_22862" x1="130.041" y1="9.38078" x2="252.325" y2="9.38078" gradientUnits="userSpaceOnUse">
<stop stop-color="#40243A"/>
<stop offset="0.99" stop-color="#24172A"/>
</linearGradient>
<linearGradient id="paint1_linear_3274_22862" x1="0.000482825" y1="39.3431" x2="264.008" y2="39.3431" gradientUnits="userSpaceOnUse">
<stop stop-color="#40243A"/>
<stop offset="0.99" stop-color="#24172A"/>
</linearGradient>
<linearGradient id="paint2_linear_3274_22862" x1="136.085" y1="65.096" x2="150.507" y2="65.096" gradientUnits="userSpaceOnUse">
<stop stop-color="#24172A"/>
<stop offset="1" stop-color="#1E0B21"/>
</linearGradient>
<linearGradient id="paint3_linear_3274_22862" x1="154.73" y1="64.5577" x2="161.651" y2="64.5577" gradientUnits="userSpaceOnUse">
<stop stop-color="#24172A"/>
<stop offset="1" stop-color="#1E0B21"/>
</linearGradient>
<linearGradient id="paint4_linear_3274_22862" x1="0.0408349" y1="12.486" x2="130.041" y2="12.486" gradientUnits="userSpaceOnUse">
<stop stop-color="#810235"/>
<stop offset="0.21" stop-color="#850433"/>
<stop offset="0.43" stop-color="#920C2D"/>
<stop offset="0.66" stop-color="#A71824"/>
<stop offset="0.89" stop-color="#C52A17"/>
<stop offset="1" stop-color="#D63410"/>
</linearGradient>
<linearGradient id="paint5_linear_3274_22862" x1="15.8525" y1="63.6883" x2="107.869" y2="-28.0691" gradientUnits="userSpaceOnUse">
<stop stop-color="#FFB800"/>
<stop offset="0.28" stop-color="#FF7000"/>
<stop offset="0.52" stop-color="#FF3800"/>
<stop offset="0.78" stop-color="#FF1F00"/>
<stop offset="1" stop-color="#FF1000"/>
</linearGradient>
<linearGradient id="paint6_linear_3274_22862" x1="181.227" y1="47.0027" x2="260.001" y2="47.0027" gradientUnits="userSpaceOnUse">
<stop stop-color="#810235"/>
<stop offset="0.21" stop-color="#850433"/>
<stop offset="0.43" stop-color="#920C2D"/>
<stop offset="0.66" stop-color="#A71824"/>
<stop offset="0.89" stop-color="#C52A17"/>
<stop offset="1" stop-color="#D63410"/>
</linearGradient>
<linearGradient id="paint7_linear_3274_22862" x1="208.182" y1="55.5179" x2="232.237" y2="55.5179" gradientUnits="userSpaceOnUse">
<stop stop-color="#810235"/>
<stop offset="0.21" stop-color="#850433"/>
<stop offset="0.43" stop-color="#920C2D"/>
<stop offset="0.66" stop-color="#A71824"/>
<stop offset="0.89" stop-color="#C52A17"/>
<stop offset="1" stop-color="#D63410"/>
</linearGradient>
<linearGradient id="paint8_linear_3274_22862" x1="221.997" y1="106.748" x2="218.863" y2="-41.9979" gradientUnits="userSpaceOnUse">
<stop stop-color="#FFB800"/>
<stop offset="0.28" stop-color="#FF7000"/>
<stop offset="0.52" stop-color="#FF3800"/>
<stop offset="0.78" stop-color="#FF1F00"/>
<stop offset="1" stop-color="#FF1000"/>
</linearGradient>
<radialGradient id="paint9_radial_3274_22862" cx="0" cy="0" r="1" gradientUnits="userSpaceOnUse" gradientTransform="translate(205.838 45.2197) scale(0.674556 0.690056)">
<stop stop-color="#FF4700"/>
<stop offset="0.43" stop-color="#770017"/>
<stop offset="0.99"/>
</radialGradient>
<radialGradient id="paint10_radial_3274_22862" cx="0" cy="0" r="1" gradientUnits="userSpaceOnUse" gradientTransform="translate(204.121 47.3752) scale(13.0999 13.4009)">
<stop stop-color="#FF4700"/>
<stop offset="0.43" stop-color="#770017"/>
<stop offset="0.99"/>
</radialGradient>
<radialGradient id="paint11_radial_3274_22862" cx="0" cy="0" r="1" gradientUnits="userSpaceOnUse" gradientTransform="translate(211.919 38.791) scale(13.0999 13.4009)">
<stop stop-color="#FF4700"/>
<stop offset="0.43" stop-color="#770017"/>
<stop offset="0.99"/>
</radialGradient>
</defs>
</svg>
