<svg width="28" height="40" viewBox="0 0 28 40" fill="none" xmlns="http://www.w3.org/2000/svg">
<path d="M4.42774 29.2357V10.5943L13.9663 4.90894L23.5049 10.5943V29.2357L13.9663 34.9211L4.42774 29.2357Z" fill="#62B400"/>
<path d="M13.9663 4.90894L23.5049 10.5943V29.2357L13.9663 34.9211V4.90894Z" fill="#4C8C00"/>
<path d="M13.9663 16.207L4.42774 10.5943L13.9663 4.90894L13.9663 16.207Z" fill="#92E200"/>
<path d="M13.9663 23.6228L4.42774 29.2357L13.9663 34.9127V23.6228Z" fill="#92E200"/>
<path d="M13.9663 16.207L23.5049 10.5943L13.9663 4.90894L13.9663 16.207Z" fill="#62B400"/>
<path d="M13.9663 23.6228L23.5049 29.2357L13.9663 34.9127V23.6228Z" fill="#62B400"/>
<path d="M13.9674 29.4461L18.8908 26.5185V13.3119L13.9674 10.3843L9.04403 13.3119V26.5185L13.9674 29.4461Z" fill="#C6EA4B"/>
<path d="M13.9676 10.376L13.9674 29.4461L18.8908 26.5185V13.3119L13.9676 10.376Z" fill="#92E200"/>
<path d="M14 0L1 7.73959V32.2523L14 40L27 32.2604V7.73959L14 0ZM20.1167 10.4408L15.1459 7.48079V3.39668L23.5702 8.41084L20.1167 10.4408ZM14 30.4893L9.02918 27.5293V12.4707L14 9.51072L18.9708 12.4707V27.5374L14 30.4893ZM12.8541 7.48079L7.88328 10.4408L4.43769 8.41084L12.862 3.39668V7.48079H12.8541ZM6.73739 12.4707V27.5293L3.29179 29.5592V10.4408L6.73739 12.4707ZM7.88328 29.5592L12.8541 32.5192V36.6033L4.42979 31.5892L7.88328 29.5592ZM15.1459 32.5192L20.1167 29.5592L23.5623 31.5892L15.138 36.6033V32.5192H15.1459ZM21.2626 27.5293V12.4707L24.7082 10.4408V29.5592L21.2626 27.5293Z" fill="#D7FF96"/>
</svg>
