<svg width="149" height="58" viewBox="0 0 149 58" fill="none" xmlns="http://www.w3.org/2000/svg">
<path d="M0.5 8C0.5 3.58172 4.08172 0 8.5 0H140.5C144.918 0 148.5 3.58172 148.5 8V50C148.5 54.4183 144.918 58 140.5 58H8.5C4.08173 58 0.5 54.4183 0.5 50V8Z" fill="#33334F"/>
<g opacity="0.7" clip-path="url(#clip0_28_7411)">
<path d="M95.0939 34.3678C93.3928 34.3678 92.1388 33.5894 91.7787 32.2068C91.4435 33.5894 90.177 34.3678 88.4883 34.3678C85.6946 34.3678 84.3164 32.6483 84.3164 30.313V23.3418H87.0356V30.464C87.0356 31.591 87.4578 32.3462 88.7243 32.3462C89.9286 32.3462 90.4129 31.591 90.4377 30.464V23.3418H93.1445V30.464C93.1445 31.591 93.6412 32.3462 94.858 32.3462C96.1245 32.3462 96.5466 31.591 96.5466 30.464V23.3418H99.2658V30.313C99.2658 32.6483 97.8876 34.3678 95.0939 34.3678Z" fill="white"/>
<path d="M60.303 26.0954C60.9114 25.2937 61.2342 24.3294 61.2342 23.3418H52.4682V25.2821H57.8818L53.2008 31.44C52.5924 32.2416 52.2695 33.206 52.2695 34.1936H61.0356V32.2533H55.622L60.303 26.0954Z" fill="white"/>
<path d="M135.807 27.1643V29.9528C135.807 30.1735 135.807 30.3943 135.807 30.615C135.807 31.0565 135.882 31.44 136.055 31.7304L136.068 31.7653C136.13 31.8582 136.192 31.9512 136.279 32.0209C136.329 32.0674 136.378 32.1138 136.44 32.1487C136.465 32.1719 136.502 32.1835 136.54 32.2068L136.552 32.2184L136.589 32.2416C136.925 32.4275 137.322 32.4856 137.707 32.4856C137.905 32.4856 138.104 32.4624 138.303 32.4275V34.3446C138.104 34.3678 137.905 34.3678 137.707 34.3678C135.559 34.3678 133.895 33.3686 133.349 31.7769L133.336 31.7537C133.249 31.4516 133.2 31.1379 133.175 30.8009C133.175 30.7428 133.162 30.6731 133.162 30.615V30.6034C133.162 30.5337 133.162 30.464 133.162 30.3943C133.162 29.6507 133.162 27.1643 133.162 27.1643H131.523V25.2821H133.162V23.3418H135.807V25.2705H138.303V27.1643H135.807Z" fill="white"/>
<path d="M65.0829 29.0001C65.0829 27.5245 66.0638 27.1643 66.9702 27.1643C67.9014 27.1643 68.8823 27.5245 68.8823 29.0001H65.0829ZM70.3972 26.444C70.3475 26.3975 70.2978 26.351 70.2357 26.3046C69.9874 26.0954 69.7018 25.9211 69.3914 25.7701C69.2424 25.7004 69.0934 25.6423 68.932 25.5842C68.8823 25.5726 68.8327 25.5494 68.783 25.5377C68.2367 25.3635 67.6283 25.2705 66.9702 25.2705C66.7964 25.2705 66.6225 25.2821 66.4611 25.2937C66.3618 25.3054 66.2749 25.317 66.1756 25.317C65.8031 25.3635 65.4554 25.4332 65.1326 25.5494C65.0084 25.5842 64.8967 25.6307 64.7725 25.6772C64.6607 25.7236 64.549 25.7817 64.4372 25.8282C64.1144 25.9909 63.8164 26.1884 63.5681 26.4207C62.8479 27.0714 62.4258 27.9776 62.4258 29.0582V29.8134V30.5686C62.4258 30.6034 62.4382 30.6267 62.4382 30.6615C62.4506 30.9752 62.4879 31.2773 62.5624 31.5562V31.5794C63.0466 33.2873 64.7601 34.3562 66.995 34.3562C68.8327 34.3562 70.3227 33.6243 71.0552 32.4043V32.3927C71.167 32.2068 71.2539 32.0209 71.3284 31.8234H68.5595C68.336 32.1255 68.0132 32.3114 67.6655 32.3927C67.4545 32.4508 67.2185 32.4624 66.995 32.4624C66.6101 32.4624 66.2004 32.4043 65.8776 32.2184L65.8403 32.1952C65.5671 32.0558 65.3809 31.8234 65.2567 31.5445C65.2319 31.4748 65.1947 31.3935 65.1822 31.3238C65.1698 31.2773 65.1574 31.2192 65.145 31.1611C65.1077 31.0101 65.0953 30.8242 65.0953 30.6383V30.5918H71.5519V30.5686V29.8134V29.0582C71.5395 28.0009 71.1173 27.1062 70.3972 26.444Z" fill="white"/>
<path d="M107.038 31.382C107.025 31.4982 106.988 31.6027 106.926 31.6957C106.678 32.0791 106.032 32.4974 105.026 32.4974C104.331 32.4974 103.723 32.1256 103.723 31.4401C103.723 30.7546 104.281 30.3247 105.262 30.3247H107.038V30.8824C107.05 31.045 107.063 31.2077 107.038 31.382ZM109.645 28.9305C109.645 28.791 109.633 28.6632 109.621 28.5238C109.608 28.4309 109.596 28.3379 109.583 28.245C109.571 28.1985 109.558 28.152 109.558 28.1055C109.558 28.0591 109.534 28.0126 109.534 27.9777V27.9545C109.062 26.2814 107.386 25.2241 105.188 25.2241C104.021 25.2241 103.003 25.5146 102.233 26.049C101.984 26.2233 101.761 26.4208 101.562 26.6416L103.561 27.8383C103.785 27.4549 104.132 27.2458 104.53 27.1528C104.579 27.1412 104.642 27.1296 104.691 27.118C104.853 27.0947 105.014 27.0831 105.188 27.0831C105.374 27.0831 105.573 27.0947 105.759 27.1412C105.809 27.1528 105.846 27.1644 105.896 27.176C106.032 27.2109 106.156 27.269 106.28 27.3387L106.318 27.3619L106.33 27.3736C106.355 27.3852 106.38 27.4084 106.405 27.42C106.578 27.5246 106.703 27.664 106.79 27.8267C106.814 27.8615 106.827 27.8848 106.839 27.9196C106.852 27.9545 106.864 27.9777 106.876 28.0126C106.901 28.0823 106.939 28.152 106.951 28.2333C106.963 28.2798 106.976 28.3379 106.988 28.3844C107.001 28.4192 107.001 28.4657 107.013 28.5006V28.5122C107.025 28.5935 107.038 28.6632 107.038 28.7562C107.038 28.8026 107.038 28.8491 107.038 28.8956V28.9421H104.592C102.705 28.9421 101.115 29.7089 101.115 31.6027C101.115 33.392 102.779 34.368 104.48 34.368C105.411 34.368 106.405 34.1123 107.038 33.4733V34.2053H109.645V29.0815C109.658 29.0234 109.658 28.9769 109.645 28.9305Z" fill="white"/>
<path d="M44.6571 29.0001C44.6571 27.5245 45.638 27.1643 46.5444 27.1643C47.4757 27.1643 48.4566 27.5245 48.4566 29.0001H44.6571ZM49.9714 26.444C49.9217 26.3975 49.872 26.351 49.81 26.3046C49.5616 26.0954 49.276 25.9211 48.9656 25.7701C48.8166 25.7004 48.6676 25.6423 48.5062 25.5842C48.4566 25.5726 48.4069 25.5494 48.3572 25.5377C47.8109 25.3635 47.2025 25.2705 46.5444 25.2705C46.3706 25.2705 46.1968 25.2821 46.0354 25.2937C45.936 25.3054 45.8491 25.317 45.7498 25.317C45.3773 25.3635 45.0296 25.4332 44.7068 25.5494C44.5826 25.5842 44.4709 25.6307 44.3467 25.6772C44.235 25.7236 44.1232 25.7817 44.0115 25.8282C43.6886 25.9909 43.3906 26.1884 43.1423 26.4207C42.4222 27.0714 42 27.9776 42 29.0582V29.8134V30.5686C42 30.6034 42.0124 30.6267 42.0124 30.6615C42.0248 30.9752 42.0621 31.2773 42.1366 31.5562V31.5794C42.6208 33.2873 44.3343 34.3562 46.5693 34.3562C48.4069 34.3562 49.8969 33.6243 50.6294 32.4043V32.3927C50.6543 32.3462 50.6915 32.2881 50.7164 32.2417C50.7909 32.1022 50.8529 31.9628 50.9026 31.8234H48.1337C47.9102 32.1255 47.5874 32.3114 47.2397 32.3927C47.0287 32.4508 46.7928 32.4624 46.5693 32.4624C46.1844 32.4624 45.7746 32.4043 45.4518 32.2184L45.4145 32.1952C45.1414 32.0558 44.9551 31.8234 44.831 31.5445C44.8061 31.4748 44.7689 31.3935 44.744 31.3238C44.7316 31.2773 44.7192 31.2192 44.7068 31.1611C44.6695 31.0101 44.6571 30.8242 44.6571 30.6383V30.5918H51.1137V30.5686V29.8134V29.0582C51.1137 28.0009 50.6915 27.1062 49.9714 26.444Z" fill="white"/>
<path d="M75.8604 29.0001C75.8604 27.5245 76.8413 27.1643 77.7477 27.1643C78.6789 27.1643 79.6598 27.5245 79.6598 29.0001H75.8604ZM81.1746 26.444C81.125 26.3975 81.0753 26.351 81.0132 26.3046C80.7649 26.0954 80.4793 25.9211 80.1689 25.7701C80.0199 25.7004 79.8709 25.6423 79.7095 25.5842C79.6598 25.5726 79.6101 25.5494 79.5605 25.5377C79.0142 25.3635 78.4057 25.2705 77.7477 25.2705C77.5738 25.2705 77.4 25.2821 77.2386 25.2937C77.1393 25.3054 77.0524 25.317 76.953 25.317C76.5805 25.3635 76.2329 25.4332 75.91 25.5494C75.7859 25.5842 75.6741 25.6307 75.55 25.6772C75.4382 25.7236 75.3265 25.7817 75.2147 25.8282C74.8919 25.9909 74.6063 26.1884 74.3456 26.4207C73.6254 27.0714 73.2032 27.9776 73.2032 29.0582V29.8134V30.5686C73.2032 30.6034 73.2157 30.6267 73.2157 30.6615C73.2281 30.9752 73.2653 31.2773 73.3398 31.5562V31.5794C73.8241 33.2873 75.5375 34.3562 77.7725 34.3562C79.6101 34.3562 81.1001 33.6243 81.8327 32.4043V32.3927C81.9444 32.2068 82.0314 32.0209 82.1059 31.8234H79.3246C79.1011 32.1255 78.7782 32.3114 78.4306 32.3927C78.2195 32.4508 77.9836 32.4624 77.7601 32.4624C77.3752 32.4624 76.9654 32.4043 76.6426 32.2184L76.6054 32.1952C76.3322 32.0558 76.146 31.8234 76.0218 31.5445C75.997 31.4748 75.9597 31.3935 75.9349 31.3238C75.9225 31.2773 75.91 31.2192 75.8976 31.1611C75.8604 31.0101 75.848 30.8242 75.848 30.6383V30.5918H82.3045V30.5686V29.8134V29.0582C82.3169 28.0009 81.8948 27.1062 81.1746 26.444Z" fill="white"/>
<path d="M123.85 29.0001C123.85 27.5245 124.831 27.1643 125.738 27.1643C126.669 27.1643 127.65 27.5245 127.65 29.0001H123.85ZM129.165 26.444C129.115 26.3975 129.065 26.351 129.003 26.3046C128.755 26.0954 128.469 25.9211 128.159 25.7701C128.01 25.7004 127.861 25.6423 127.7 25.5842C127.65 25.5726 127.6 25.5494 127.551 25.5377C127.004 25.3635 126.396 25.2705 125.738 25.2705C125.564 25.2705 125.39 25.2821 125.229 25.2937C125.129 25.3054 125.042 25.317 124.943 25.317C124.571 25.3635 124.223 25.4332 123.9 25.5494C123.776 25.5842 123.664 25.6307 123.54 25.6772C123.428 25.7236 123.317 25.7817 123.205 25.8282C122.882 25.9909 122.584 26.1884 122.336 26.4207C121.616 27.0714 121.193 27.9776 121.193 29.0582V29.8134V30.5686C121.193 30.6034 121.206 30.6267 121.206 30.6615C121.218 30.9752 121.255 31.2773 121.33 31.5562V31.5794C121.814 33.2873 123.528 34.3562 125.763 34.3562C127.6 34.3562 129.09 33.6243 129.823 32.4043V32.3927C129.935 32.2068 130.021 32.0209 130.096 31.8234H127.327C127.104 32.1255 126.781 32.3114 126.433 32.3927C126.222 32.4508 125.986 32.4624 125.763 32.4624C125.378 32.4624 124.968 32.4043 124.645 32.2184L124.608 32.1952C124.335 32.0558 124.148 31.8234 124.024 31.5445C123.999 31.4748 123.962 31.3935 123.95 31.3238C123.937 31.2773 123.925 31.2192 123.913 31.1611C123.875 31.0101 123.863 30.8242 123.863 30.6383V30.5918H130.319V30.5686V29.8134V29.0582C130.307 28.0009 129.885 27.1062 129.165 26.444Z" fill="white"/>
<path d="M112.948 34.1936H114.463V23.3418H111.818V33.1479C111.818 33.7288 112.315 34.1936 112.948 34.1936Z" fill="white"/>
<path d="M117.542 34.1936H119.057V23.3418H116.412V33.1479C116.412 33.7288 116.921 34.1936 117.542 34.1936Z" fill="white"/>
<path d="M19.8613 31.6143C19.8613 32.3811 20.5194 32.9969 21.3389 32.9969H33.1345V30.2433H21.3389C20.5194 30.2317 19.8613 30.8475 19.8613 31.6143Z" fill="white"/>
<path d="M33.1229 24.7129H21.3273C20.5078 24.7129 19.8497 25.3287 19.8497 26.0955C19.8497 26.8623 20.5078 27.4781 21.3273 27.4781H33.1229V24.7129Z" fill="white"/>
<path d="M16.0992 23.7598C15.8881 24.12 15.7888 24.5266 15.7888 24.9333C15.7764 25.9789 16.4717 26.769 17.3905 27.3034C18.0734 27.7217 18.7315 28.2097 18.7315 28.9998C18.7315 29.7898 18.0734 30.2778 17.3905 30.6961C16.4841 31.2305 15.7888 32.0206 15.7888 33.0663C15.7888 33.4729 15.8881 33.8796 16.0992 34.2397C16.7573 35.4016 18.1355 35.7385 19.4392 35.7385H34.5873V39.8748H19.2033C18.9922 39.8748 18.7811 39.8748 18.5576 39.8748C16.7448 39.8864 14.8451 39.503 13.3924 38.4341C12.5605 37.8299 11.9148 37.0282 11.5548 36.0871C10.7104 33.9609 11.2195 31.8812 12.9702 30.3359C13.1441 30.1732 13.3303 30.0222 13.4917 29.8479C13.6656 29.662 13.827 29.4529 13.9015 29.2089C13.9263 29.1392 13.9387 29.0927 13.9387 28.9998C13.9387 28.9068 13.9263 28.8603 13.9015 28.7906C13.827 28.5466 13.6656 28.3375 13.4917 28.1516C13.3303 27.9773 13.1441 27.8263 12.9702 27.6636C11.2195 26.1183 10.7104 24.027 11.5548 21.9124C11.9273 20.9829 12.5605 20.1696 13.4048 19.5655C14.8575 18.5082 16.7573 18.1131 18.5701 18.1248C18.7811 18.1248 18.9922 18.1248 19.2157 18.1248H34.5997V22.261H19.4516C18.1355 22.261 16.7573 22.5979 16.0992 23.7598Z" fill="white"/>
</g>
<defs>
<clipPath id="clip0_28_7411">
<rect width="127.145" height="21.75" fill="white" transform="translate(11.1582 18.125)"/>
</clipPath>
</defs>
</svg>
