<svg width="20" height="20" viewBox="0 0 20 20" fill="none" xmlns="http://www.w3.org/2000/svg">
<g clip-path="url(#clip0_9413_4705)">
<path d="M16.5285 0.985258L10.6582 3.57225C10.24 3.75721 9.75969 3.7576 9.34079 3.57186L3.47118 0.985258C1.3404 0.0465863 -0.762416 2.35373 0.363834 4.38717L7.87258 17.9722C8.79665 19.649 11.2027 19.65 12.1267 17.9726L17.1965 8.79635C17.303 8.60401 17.2331 8.3619 17.0407 8.2558C16.848 8.14893 16.6059 8.21967 16.5002 8.41162L11.4299 17.5883C10.8086 18.7157 9.19145 18.7161 8.56938 17.5879L1.06024 4.00205C0.301764 2.63217 1.71962 1.08225 3.1502 1.7135L9.01899 4.29971C9.64309 4.57639 10.3573 4.576 10.9799 4.3001L16.8495 1.7135C18.2798 1.08334 19.6986 2.6312 18.9391 4.00241L17.6419 6.35428C17.5358 6.54702 17.6057 6.78912 17.7981 6.89522C17.9912 7.00053 18.2329 6.93096 18.339 6.73901L19.6358 4.38752C20.7642 2.34948 18.6549 0.0481488 16.5285 0.985258Z" fill="#FFD400"/>
</g>
<defs>
<clipPath id="clip0_9413_4705">
<rect width="20" height="20" fill="white"/>
</clipPath>
</defs>
</svg>
