<svg width="149" height="58" viewBox="0 0 149 58" fill="none" xmlns="http://www.w3.org/2000/svg">
<path d="M0.5 8C0.5 3.58172 4.08172 0 8.5 0H140.5C144.918 0 148.5 3.58172 148.5 8V50C148.5 54.4183 144.918 58 140.5 58H8.5C4.08173 58 0.5 54.4183 0.5 50V8Z" fill="#33334F"/>
<g clip-path="url(#clip0_28_7429)">
<g opacity="0.7">
<path d="M110.635 9.4248H37.8059V47.8498H110.635V9.4248Z" fill="white" fill-opacity="0.5"/>
<path d="M84.5354 39.2554C84.4059 39.2792 84.275 39.2962 84.1435 39.3064C83.0726 39.3064 82.0017 39.3267 80.9308 39.3064C80.7183 39.2608 80.5334 39.1369 80.4168 38.9617C79.468 37.6951 78.5406 36.4143 77.6067 35.1375C77.5232 35.0233 77.4333 34.9152 77.2683 34.7031C77.2469 35.0172 77.2212 35.2211 77.2212 35.4271C77.2212 36.5999 77.2212 37.7706 77.2341 38.9433C77.2341 39.2554 77.142 39.3716 76.8057 39.3512C75.9811 39.3267 75.1544 39.3512 74.3298 39.339C74.1863 39.339 74.0407 39.3267 73.8543 39.3186V38.8719C73.8543 34.8296 73.8493 30.7858 73.8393 26.7407C73.8393 25.9168 73.8265 25.0928 73.8008 24.2688C73.8008 23.9975 73.8929 23.9119 74.1756 23.9139C75.0323 23.9139 75.9062 23.9139 76.7693 23.8833C77.112 23.8711 77.2084 23.969 77.1977 24.2912C77.1848 26.3124 77.1977 28.3336 77.1977 30.3568V32.3148L77.3347 32.3535C77.5489 32.0966 77.7481 31.8416 77.9494 31.5826C78.7719 30.5139 79.5965 29.4472 80.4061 28.3703C80.4788 28.2576 80.583 28.1662 80.707 28.1065C80.8311 28.0467 80.97 28.0208 81.1086 28.0318C81.9867 28.0501 82.867 28.0318 83.7451 28.0318C83.9314 28.0318 84.1178 28.0481 84.3876 28.0603C84.2291 28.2928 84.1178 28.4682 83.9871 28.6416C82.7792 30.1896 81.5733 31.7396 80.3461 33.2754C80.1041 33.5793 80.0912 33.7812 80.3461 34.0912C81.749 35.78 83.109 37.4871 84.5354 39.2554Z" fill="white"/>
<path d="M72.7167 28.0541L67.4093 43.7361H63.8646C64.1002 43.0305 64.3294 42.3411 64.5607 41.6517C64.792 40.9624 65.0469 40.2383 65.2697 39.5245C65.3075 39.3799 65.2955 39.2276 65.2354 39.0901C63.6548 35.5576 62.072 32.0258 60.4871 28.4946C60.4335 28.3804 60.3971 28.2601 60.3264 28.0704H61.0846C61.9242 28.0704 62.7616 28.0704 63.6012 28.0582C63.7179 28.0354 63.8393 28.0555 63.9411 28.1146C64.0428 28.1736 64.1173 28.2671 64.1495 28.3763C65.0212 30.3506 65.9165 32.3188 66.8075 34.291C66.8375 34.3624 66.8739 34.4317 66.9403 34.5643C67.0345 34.3236 67.1202 34.1319 67.1866 33.9361C67.8034 32.1005 68.4224 30.265 69.0306 28.4294C69.1163 28.1703 69.2277 28.0337 69.5554 28.0418C70.5856 28.0684 71.6265 28.0541 72.7167 28.0541Z" fill="white"/>
<path d="M53.8693 23.9321V26.8548C53.5614 26.8759 53.2553 26.9154 52.9526 26.9731C52.2887 27.1403 52.0166 27.4483 51.9909 28.0908C51.9652 28.7332 51.9909 29.4287 51.9909 30.1629H53.9014C53.9014 30.9788 53.9014 31.7171 53.8886 32.4615C53.8886 32.539 53.6744 32.6655 53.5694 32.6797C53.0725 32.7022 52.5735 32.6797 52.0338 32.6797C52.0166 32.8837 51.9888 33.053 51.9888 33.2263C51.9888 35.1455 51.9888 37.0668 51.9888 38.986C51.9888 39.296 51.8903 39.3939 51.5797 39.3939C50.723 39.3939 49.8663 39.3939 49.0224 39.3939C48.9057 39.3851 48.7898 39.3688 48.6755 39.345V38.3252C48.6755 36.5875 48.6755 34.858 48.6755 33.108C48.6755 32.7654 48.5619 32.6675 48.2085 32.6757C47.369 32.694 47.369 32.6757 47.3647 31.8598C47.3647 31.5131 47.3647 31.1644 47.3647 30.8176C47.3647 30.5953 47.4525 30.5015 47.6752 30.4526C48.8704 30.1976 48.6605 30.3118 48.6476 29.2839C48.6176 28.4999 48.6686 27.715 48.7997 26.9405C49.1188 25.3088 50.3546 24.2666 52.0959 24.0402C52.6656 23.9688 53.246 23.9688 53.8693 23.9321Z" fill="white"/>
<path d="M59.1806 39.3431H55.8586V23.9854H59.1806V39.3431Z" fill="white"/>
<path d="M90.7423 28.0376C90.5774 28.2742 90.4724 28.4455 90.3461 28.6046C89.1295 30.1628 87.9194 31.7251 86.6793 33.267C86.4202 33.5893 86.4652 33.7891 86.705 34.0828C88.0051 35.6614 89.2752 37.2584 90.5603 38.8472C90.6481 38.9573 90.7273 39.0716 90.8408 39.2245C90.7364 39.2485 90.6306 39.2662 90.5238 39.2776C89.4701 39.2918 88.4142 39.3143 87.3604 39.302C87.2594 39.2949 87.161 39.2683 87.0711 39.2238C86.9813 39.1792 86.9019 39.1177 86.8378 39.043C85.5528 37.3074 84.3062 35.5574 83.0362 33.8157C82.9449 33.724 82.894 33.6024 82.894 33.4761C82.894 33.3497 82.9449 33.2282 83.0362 33.1365C84.2912 31.5416 85.5328 29.9371 86.7607 28.3232C86.8212 28.2263 86.9086 28.1473 87.0133 28.0947C87.118 28.0422 87.2359 28.0182 87.354 28.0254C88.2728 28.0254 89.1917 28.0009 90.1105 27.9907C90.2925 27.9948 90.4746 28.0193 90.7423 28.0376Z" fill="white"/>
<path d="M92.6461 31.8005C92.6332 31.6251 92.6182 31.5007 92.6182 31.3784C92.6182 30.3586 92.6182 29.3164 92.6182 28.2864C92.6028 28.1866 92.6255 28.0848 92.682 27.9995C92.7386 27.9142 92.8254 27.851 92.9267 27.8214C93.8241 27.4726 94.7151 27.1076 95.6082 26.7466C95.7453 26.6915 95.878 26.6303 96.0901 26.5426L93.8498 25.4678C93.8498 25.894 93.8498 26.2509 93.8498 26.6058C93.8498 27.2646 93.8498 27.2646 93.113 27.4216V24.189C93.6999 24.4684 94.2417 24.7192 94.7772 24.9783C95.4625 25.3107 96.1415 25.6534 96.829 25.9776C96.9351 26.012 97.026 26.0794 97.087 26.1689C97.148 26.2585 97.1756 26.3649 97.1653 26.4712C97.1503 27.4767 97.1653 28.4802 97.1653 29.4857C97.1661 29.5543 97.1517 29.6223 97.1229 29.6853C97.0941 29.7482 97.0516 29.8046 96.9982 29.8507C95.6425 30.485 94.2781 31.0989 92.916 31.7169C92.8496 31.7434 92.7789 31.7577 92.6461 31.8005Z" fill="white"/>
<path d="M96.7547 21.5559H97.1059C97.832 21.5559 98.5067 20.6401 98.2475 19.9895C97.9883 19.3389 97.7228 18.6944 97.4593 18.0478C97.1959 17.4013 96.9346 16.7589 96.6711 16.1144C97.2216 15.9104 97.3651 15.9879 97.5493 16.4835C97.9155 17.4584 98.2946 18.4292 98.693 19.4674C98.8943 18.9106 99.0764 18.4068 99.2606 17.903C99.4248 17.4394 99.5918 16.9778 99.7617 16.5182C99.9609 15.9675 99.9759 15.9614 100.648 16.0797C100.368 16.816 100.096 17.5461 99.8153 18.2742C99.4769 19.1533 99.1385 20.0344 98.7894 20.9093C98.4274 21.819 97.9905 22.133 97.1381 22.1045C96.7054 22.0923 96.654 22.025 96.7547 21.5559Z" fill="white"/>
<path d="M85.8312 21.5417C86.6558 21.6845 87.0392 21.2541 87.3005 20.5648C87.4868 20.0712 87.1891 19.7224 87.0435 19.341C86.6322 18.2601 86.1675 17.1954 85.7241 16.1226C86.296 15.937 86.4009 15.9717 86.5808 16.4367C86.9299 17.3382 87.2683 18.2458 87.611 19.1493C87.641 19.2289 87.6817 19.3064 87.7481 19.4532C88.003 18.7659 88.2343 18.1459 88.4635 17.5238C88.592 17.173 88.7162 16.8202 88.8468 16.4714C89.0375 15.9636 89.076 15.9452 89.7036 16.1002C89.3652 16.9922 89.026 17.8821 88.6862 18.77C88.3992 19.5164 88.1165 20.265 87.8166 21.0135C87.4911 21.817 87.037 22.1311 86.2596 22.1148C85.767 22.0965 85.7434 22.07 85.8312 21.5417Z" fill="white"/>
<path d="M99.7825 26.5139C99.0094 26.4956 98.4568 25.8837 98.4975 25.0862C98.5068 24.7496 98.6519 24.4292 98.9028 24.1918C99.1537 23.9544 99.491 23.8182 99.8447 23.8115C100.524 23.8299 101.13 24.4683 101.13 25.1637C101.113 25.9449 100.524 26.5323 99.7825 26.5139ZM98.7545 25.1739C98.7445 25.4524 98.849 25.7235 99.0458 25.9296C99.2427 26.1357 99.5162 26.2605 99.8082 26.2773C100.331 26.2773 100.832 25.7634 100.853 25.1943C100.869 24.9252 100.773 24.661 100.587 24.4582C100.4 24.2554 100.138 24.1302 99.8554 24.1093C99.2257 24.0767 98.7759 24.5172 98.7545 25.1739Z" fill="white"/>
<path d="M96.1632 17.4115C95.9297 16.3061 95.0794 15.7533 93.9785 16.0124C93.6663 16.1245 93.3681 16.2695 93.0897 16.4447V14.3032H92.46V20.2057C92.9205 20.3668 93.019 20.0935 93.0619 19.7366C93.1711 19.8161 93.2332 19.8589 93.2932 19.9058C93.5058 20.0907 93.7645 20.2209 94.0446 20.2841C94.3248 20.3473 94.6173 20.3415 94.8944 20.2672C95.1716 20.1929 95.4243 20.0526 95.6287 19.8595C95.833 19.6663 95.9824 19.4268 96.0625 19.1635C96.256 18.5978 96.2907 17.9938 96.1632 17.4115ZM95.4328 18.9004C95.3879 19.158 95.2409 19.3894 95.0222 19.5469C94.8034 19.7043 94.5295 19.7759 94.257 19.7468C93.6144 19.706 93.2268 19.3735 93.1861 18.7515C93.1513 18.2433 93.1757 17.733 93.2589 17.23C93.3403 16.7711 93.7087 16.5508 94.1949 16.5345C94.8524 16.5141 95.1844 16.6711 95.3557 17.1463C95.4483 17.4523 95.5198 17.7636 95.5699 18.0784C95.5164 18.3986 95.4971 18.6536 95.4328 18.9004Z" fill="white"/>
<path d="M80.0382 14.854C79.1472 14.5011 78.2134 14.6704 77.2795 14.65V20.2078C77.9649 20.2873 77.9671 20.2873 77.9671 19.6938V18.0927C78.3654 18.0642 78.7552 18.052 79.1386 18.005C79.9225 17.9112 80.5565 17.6155 80.8199 16.8303C81.0834 16.045 80.7535 15.1354 80.0382 14.854ZM79.3571 17.3667C78.9287 17.4462 78.4832 17.4544 77.982 17.4992V15.2027C78.4339 15.2116 78.8849 15.2422 79.3335 15.2945C79.8989 15.3863 80.1774 15.7432 80.1902 16.2959C80.2174 16.5413 80.1469 16.7875 79.9926 16.9858C79.8384 17.1841 79.6116 17.32 79.3571 17.3667Z" fill="white"/>
<path d="M85.043 16.9528C85.0387 16.7776 84.9812 16.6073 84.8774 16.4626C84.7737 16.3178 84.6281 16.2047 84.4583 16.137C83.6509 15.8046 82.8862 15.9718 82.1024 16.3206C82.188 16.5123 82.2566 16.6591 82.3294 16.8203C82.5463 16.7272 82.7695 16.6481 82.9976 16.5837C83.9057 16.396 84.5183 16.5837 84.3748 17.6748C83.9488 17.6786 83.5239 17.7168 83.1047 17.789C82.6787 17.879 82.2773 18.0535 81.9267 18.301C81.5369 18.6069 81.5348 19.2963 81.7939 19.7287C81.9456 19.9518 82.1656 20.1251 82.4243 20.2251C82.6829 20.3251 82.9676 20.3469 83.2396 20.2875C83.6631 20.1563 84.0755 19.9947 84.4733 19.8041C84.5012 19.8939 84.5483 20.0509 84.5975 20.212H85.0516C85.0559 19.1107 85.0752 18.0318 85.043 16.9528ZM82.8627 19.7246C82.7283 19.7024 82.6055 19.6382 82.5136 19.5422C82.4217 19.4462 82.3659 19.3238 82.3551 19.1943C82.3187 18.8741 82.3722 18.5416 82.6978 18.4458C83.2024 18.3163 83.7187 18.2323 84.2399 18.1949C84.302 18.1949 84.3898 18.3989 84.4112 18.4376C84.3941 19.3942 83.6402 19.955 82.8627 19.7246Z" fill="white"/>
<path d="M100.085 25.3149H100.2C100.222 25.0926 100.322 24.8417 100.247 24.6561C100.091 24.2768 99.7011 24.4522 99.3756 24.4257C99.2856 25.4454 99.3242 25.8044 99.5705 25.9431C99.5876 25.7391 99.6005 25.5515 99.6155 25.3659L99.7054 25.3027C99.8061 25.4271 99.896 25.5576 100.005 25.6718C100.104 25.7655 100.209 25.854 100.318 25.937L100.399 25.8431L100.085 25.3149ZM100.067 24.907L99.8661 25.0314L99.6112 25.1905V24.7214L99.7076 24.6174L100.067 24.9009V24.907Z" fill="white"/>
</g>
</g>
<defs>
<clipPath id="clip0_28_7429">
<rect width="72.8293" height="38.425" fill="white" transform="translate(37.8059 9.4248)"/>
</clipPath>
</defs>
</svg>
