<svg width="152" height="40" viewBox="0 0 152 40" fill="none" xmlns="http://www.w3.org/2000/svg">
<g style="mix-blend-mode:luminosity" opacity="0.5">
<path d="M4.42774 29.2357V10.5943L13.9663 4.90894L23.5049 10.5943V29.2357L13.9663 34.9211L4.42774 29.2357Z" fill="#ffffff"/>
<path d="M13.9663 4.90894L23.5049 10.5943V29.2357L13.9663 34.9211V4.90894Z" fill="#ffffff"/>
<path d="M13.9663 16.207L4.42774 10.5943L13.9663 4.90894L13.9663 16.207Z" fill="#ffffff"/>
<path d="M13.9663 23.6228L4.42774 29.2357L13.9663 34.9127V23.6228Z" fill="#ffffff"/>
<path d="M13.9663 16.207L23.5049 10.5943L13.9663 4.90894L13.9663 16.207Z" fill="#ffffff"/>
<path d="M13.9663 23.6228L23.5049 29.2357L13.9663 34.9127V23.6228Z" fill="#ffffff"/>
<path d="M13.9674 29.4461L18.8908 26.5185V13.3119L13.9674 10.3843L9.04403 13.3119V26.5185L13.9674 29.4461Z" fill="#ffffff"/>
<path d="M13.9676 10.376L13.9674 29.4461L18.8908 26.5185V13.3119L13.9676 10.376Z" fill="#ffffff"/>
<path d="M14 0L1 7.73959V32.2523L14 40L27 32.2604V7.73959L14 0ZM20.1167 10.4408L15.1459 7.48079V3.39668L23.5702 8.41084L20.1167 10.4408ZM14 30.4893L9.02918 27.5293V12.4707L14 9.51072L18.9708 12.4707V27.5374L14 30.4893ZM12.8541 7.48079L7.88328 10.4408L4.43769 8.41084L12.862 3.39668V7.48079H12.8541ZM6.73739 12.4707V27.5293L3.29179 29.5592V10.4408L6.73739 12.4707ZM7.88328 29.5592L12.8541 32.5192V36.6033L4.42979 31.5892L7.88328 29.5592ZM15.1459 32.5192L20.1167 29.5592L23.5623 31.5892L15.138 36.6033V32.5192H15.1459ZM21.2626 27.5293V12.4707L24.7082 10.4408V29.5592L21.2626 27.5293Z" fill="#ffffff"/>
<path d="M120.06 19.22C119.92 21.26 119.52 23.04 118.86 24.56C118.2 26.06 117.4 27.32 116.46 28.34C115.54 29.36 114.54 30.12 113.46 30.62C112.4 31.12 111.39 31.37 110.43 31.37C109.69 31.37 108.98 31.21 108.3 30.89C107.64 30.57 107.06 30.09 106.56 29.45C106.08 28.79 105.7 27.97 105.42 26.99C105.14 26.01 105 24.86 105 23.54C105 20.96 105.37 18.71 106.11 16.79C106.85 14.87 107.78 13.27 108.9 11.99C110.04 10.71 111.25 9.76 112.53 9.14C113.83 8.52 115.04 8.21 116.16 8.21C116.96 8.21 117.65 8.35 118.23 8.63C118.83 8.91 119.32 9.29 119.7 9.77C120.08 10.23 120.35 10.78 120.51 11.42C120.69 12.04 120.78 12.7 120.78 13.4L116.67 14.18C116.49 13.38 116.25 12.81 115.95 12.47C115.65 12.13 115.31 11.96 114.93 11.96C114.43 11.96 113.88 12.32 113.28 13.04C112.68 13.74 112.12 14.65 111.6 15.77C111.08 16.89 110.64 18.12 110.28 19.46C109.92 20.8 109.72 22.12 109.68 23.42C109.68 24.66 109.86 25.55 110.22 26.09C110.6 26.61 111.08 26.87 111.66 26.87C112.06 26.87 112.47 26.77 112.89 26.57C113.33 26.37 113.72 26.09 114.06 25.73C114.4 25.35 114.68 24.92 114.9 24.44C115.14 23.94 115.27 23.4 115.29 22.82L112.08 23.3L112.65 20.33C113.59 20.21 114.51 20.09 115.41 19.97C116.17 19.87 116.97 19.75 117.81 19.61C118.67 19.47 119.42 19.34 120.06 19.22Z" fill="#ffffff"/>
<path d="M119.551 30.68L123.481 9.35L132.961 8.54C132.821 8.98 132.701 9.43 132.601 9.89C132.501 10.27 132.401 10.67 132.301 11.09C132.221 11.49 132.151 11.85 132.091 12.17C131.891 12.19 131.601 12.21 131.221 12.23C130.861 12.23 130.471 12.24 130.051 12.26C129.631 12.26 129.201 12.26 128.761 12.26C128.341 12.26 127.971 12.26 127.651 12.26L126.601 17.63C127.221 17.59 127.801 17.56 128.341 17.54C128.781 17.52 129.231 17.51 129.691 17.51C130.151 17.51 130.491 17.5 130.711 17.48C130.631 18.04 130.551 18.59 130.471 19.13C130.411 19.67 130.331 20.22 130.231 20.78C130.031 20.8 129.701 20.82 129.241 20.84C128.801 20.84 128.351 20.85 127.891 20.87C127.371 20.89 126.801 20.91 126.181 20.93L125.161 26.45L129.541 25.76L129.241 29.18L119.551 30.68Z" fill="#ffffff"/>
<path d="M129.235 30.47C130.115 27.81 130.955 25.2 131.755 22.64C132.095 21.56 132.445 20.43 132.805 19.25C133.165 18.07 133.525 16.9 133.885 15.74C134.245 14.58 134.575 13.46 134.875 12.38C135.195 11.3 135.475 10.3 135.715 9.38C136.815 9.38 137.855 9.32 138.835 9.2C139.815 9.08 140.875 8.97 142.015 8.87C141.955 9.31 141.885 9.81 141.805 10.37C141.745 10.91 141.665 11.48 141.565 12.08C141.485 12.68 141.395 13.3 141.295 13.94C141.195 14.58 141.075 15.4 140.935 16.4C140.795 17.4 140.605 18.65 140.365 20.15H140.755C141.335 18.63 141.815 17.37 142.195 16.37C142.575 15.35 142.885 14.52 143.125 13.88C143.365 13.24 143.605 12.62 143.845 12.02C144.105 11.4 144.345 10.82 144.565 10.28C144.805 9.72 145.025 9.23 145.225 8.81C145.725 8.77 146.195 8.72 146.635 8.66C147.075 8.6 147.515 8.54 147.955 8.48C148.395 8.4 148.835 8.33 149.275 8.27C149.735 8.19 150.235 8.1 150.775 8C150.575 9.16 150.385 10.35 150.205 11.57C150.025 12.79 149.865 14.01 149.725 15.23C149.585 16.43 149.445 17.62 149.305 18.8C149.185 19.98 149.075 21.1 148.975 22.16C148.735 24.64 148.525 27.06 148.345 29.42L143.125 30.35C143.125 30.25 143.135 29.98 143.155 29.54C143.195 29.1 143.235 28.56 143.275 27.92C143.335 27.28 143.405 26.57 143.485 25.79C143.585 25.01 143.675 24.23 143.755 23.45C143.855 22.67 143.955 21.92 144.055 21.2C144.155 20.46 144.255 19.83 144.355 19.31H144.085C143.805 20.15 143.495 21.04 143.155 21.98C142.815 22.9 142.465 23.84 142.105 24.8C141.765 25.76 141.425 26.7 141.085 27.62C140.745 28.54 140.445 29.42 140.185 30.26C139.485 30.28 138.885 30.31 138.385 30.35C137.885 30.37 137.305 30.4 136.645 30.44L137.605 19.31H137.155C137.115 19.57 137.015 20.01 136.855 20.63C136.695 21.23 136.505 21.93 136.285 22.73C136.085 23.51 135.865 24.33 135.625 25.19C135.385 26.03 135.155 26.82 134.935 27.56C134.735 28.28 134.565 28.88 134.425 29.36C134.285 29.82 134.205 30.08 134.185 30.14L129.235 30.47Z" fill="#ffffff"/>
<path d="M52.87 23.5896C52.87 24.7096 52.65 25.7296 52.21 26.6496C51.79 27.5496 51.21 28.3296 50.47 28.9896C49.75 29.6496 48.89 30.1596 47.89 30.5196C46.91 30.8796 45.85 31.0596 44.71 31.0596C43.91 31.0596 43.11 30.8496 42.31 30.4296C41.51 29.9896 40.74 29.2996 40 28.3596L42.22 24.0096C42.36 24.2696 42.57 24.5396 42.85 24.8196C43.13 25.0796 43.44 25.3096 43.78 25.5096C44.14 25.7096 44.49 25.8796 44.83 26.0196C45.19 26.1396 45.51 26.1996 45.79 26.1996C46.03 26.1996 46.28 26.1596 46.54 26.0796C46.8 25.9996 47.04 25.8796 47.26 25.7196C47.48 25.5596 47.65 25.3796 47.77 25.1796C47.91 24.9596 47.98 24.7096 47.98 24.4296C47.98 23.9496 47.82 23.5096 47.5 23.1096C47.2 22.6896 46.82 22.2996 46.36 21.9396C45.9 21.5596 45.4 21.1796 44.86 20.7996C44.32 20.4196 43.82 20.0196 43.36 19.5996C42.92 19.1796 42.54 18.7096 42.22 18.1896C41.9 17.6696 41.74 17.0896 41.74 16.4496C41.74 15.4096 42.05 14.4396 42.67 13.5396C43.29 12.6396 44.06 11.8696 44.98 11.2296C45.92 10.5696 46.94 10.0496 48.04 9.66957C49.14 9.28957 50.18 9.09957 51.16 9.09957C51.7 9.09957 52.21 9.16957 52.69 9.30957C53.17 9.42957 53.58 9.63957 53.92 9.93957C54.28 10.2196 54.56 10.5796 54.76 11.0196C54.98 11.4596 55.09 12.0096 55.09 12.6696C55.09 12.9496 55.06 13.2296 55 13.5096C54.96 13.7896 54.92 14.0896 54.88 14.4096L50.53 15.6696C50.57 15.5096 50.6 15.3496 50.62 15.1896C50.66 15.0296 50.68 14.8696 50.68 14.7096C50.68 14.1096 50.57 13.6796 50.35 13.4196C50.15 13.1396 49.88 12.9996 49.54 12.9996C49.38 12.9996 49.18 13.0596 48.94 13.1796C48.72 13.2996 48.49 13.4596 48.25 13.6596C48.03 13.8396 47.84 14.0596 47.68 14.3196C47.52 14.5796 47.44 14.8596 47.44 15.1596C47.44 15.6396 47.57 16.0396 47.83 16.3596C48.11 16.6796 48.45 16.9796 48.85 17.2596C49.25 17.5396 49.68 17.8296 50.14 18.1296C50.62 18.4096 51.06 18.7796 51.46 19.2396C51.86 19.6996 52.19 20.2796 52.45 20.9796C52.73 21.6596 52.87 22.5296 52.87 23.5896Z" fill="white"/>
<path d="M61.3506 30.0396C60.7306 30.0396 60.0706 30.0596 59.3706 30.0996C58.6906 30.1396 58.0006 30.1996 57.3006 30.2796C56.6006 30.3596 55.9106 30.4696 55.2306 30.6096C54.5706 30.7296 53.9706 30.8796 53.4306 31.0596C53.5506 30.1596 53.6906 29.1596 53.8506 28.0596C54.0106 26.9596 54.1906 25.8196 54.3906 24.6396C54.6106 23.4596 54.8206 22.2696 55.0206 21.0696C55.2406 19.8696 55.4606 18.7196 55.6806 17.6196C56.1806 14.9996 56.7106 12.3296 57.2706 9.60957L62.5206 8.91957C61.9806 11.2396 61.4606 13.4996 60.9606 15.6996C60.7406 16.6396 60.5206 17.6196 60.3006 18.6396C60.0806 19.6396 59.8706 20.6196 59.6706 21.5796C59.4706 22.5396 59.2906 23.4696 59.1306 24.3696C58.9706 25.2696 58.8406 26.0696 58.7406 26.7696C59.2406 26.7296 59.7706 26.7096 60.3306 26.7096C60.9106 26.6896 61.4206 26.6796 61.8606 26.6796C61.8806 27.0596 61.9106 27.4396 61.9506 27.8196C61.9906 28.1796 62.0306 28.5096 62.0706 28.8096C62.1306 29.1096 62.1706 29.3796 62.1906 29.6196C62.2306 29.8396 62.2606 29.9896 62.2806 30.0696C62.1206 30.0696 61.9606 30.0696 61.8006 30.0696C61.6606 30.0496 61.5106 30.0396 61.3506 30.0396Z" fill="white"/>
<path d="M79.5234 14.7696C79.5234 16.4096 79.3434 17.9596 78.9834 19.4196C78.6434 20.8596 78.1834 22.1896 77.6034 23.4096C77.0234 24.6096 76.3434 25.6896 75.5634 26.6496C74.8034 27.5896 74.0034 28.3996 73.1634 29.0796C72.3234 29.7396 71.4734 30.2496 70.6134 30.6096C69.7534 30.9496 68.9334 31.1196 68.1534 31.1196C67.4934 31.1196 66.8934 30.9996 66.3534 30.7596C65.8134 30.4996 65.3434 30.1296 64.9434 29.6496C64.5434 29.1496 64.2234 28.5196 63.9834 27.7596C63.7634 26.9796 63.6534 26.0496 63.6534 24.9696C63.6534 23.8496 63.7934 22.6696 64.0734 21.4296C64.3534 20.1896 64.7334 18.9596 65.2134 17.7396C65.6934 16.5196 66.2834 15.3596 66.9834 14.2596C67.6834 13.1596 68.4534 12.1896 69.2934 11.3496C70.1334 10.4896 71.0334 9.80957 71.9934 9.30957C72.9534 8.80957 73.9534 8.55957 74.9934 8.55957C75.8934 8.55957 76.6334 8.74957 77.2134 9.12957C77.8134 9.48957 78.2734 9.96957 78.5934 10.5696C78.9334 11.1496 79.1734 11.8096 79.3134 12.5496C79.4534 13.2896 79.5234 14.0296 79.5234 14.7696ZM68.1234 24.1896C68.1234 24.4096 68.1634 24.6396 68.2434 24.8796C68.3234 25.1196 68.4334 25.3296 68.5734 25.5096C68.7134 25.6896 68.8834 25.8496 69.0834 25.9896C69.3034 26.1096 69.5334 26.1696 69.7734 26.1696C70.6734 26.1696 71.4734 25.8596 72.1734 25.2396C72.8734 24.6196 73.4534 23.8596 73.9134 22.9596C74.3734 22.0596 74.7234 21.0996 74.9634 20.0796C75.2234 19.0596 75.3534 18.1296 75.3534 17.2896C75.3534 17.0496 75.3334 16.7896 75.2934 16.5096C75.2734 16.2296 75.2134 15.9696 75.1134 15.7296C75.0334 15.4896 74.8934 15.2896 74.6934 15.1296C74.5134 14.9496 74.2634 14.8596 73.9434 14.8596C73.3034 14.8596 72.7134 15.0196 72.1734 15.3396C71.6334 15.6596 71.1434 16.0896 70.7034 16.6296C70.2834 17.1496 69.9134 17.7496 69.5934 18.4296C69.2734 19.0896 68.9934 19.7696 68.7534 20.4696C68.5334 21.1496 68.3734 21.8196 68.2734 22.4796C68.1734 23.1396 68.1234 23.7096 68.1234 24.1896Z" fill="white"/>
<path d="M80.8183 31.0296C81.2783 28.8296 81.7183 26.6596 82.1383 24.5196C82.3183 23.6196 82.4983 22.6796 82.6783 21.6996C82.8583 20.7196 83.0283 19.7596 83.1883 18.8196C83.3683 17.8596 83.5183 16.9396 83.6383 16.0596C83.7783 15.1596 83.8983 14.3396 83.9983 13.5996C83.5383 13.5396 83.0683 13.5196 82.5883 13.5396C82.1283 13.5596 81.6683 13.4996 81.2083 13.3596C81.2283 13.0396 81.2383 12.6696 81.2383 12.2496C81.2383 11.8296 81.2483 11.4096 81.2683 10.9896C81.2883 10.5296 81.3083 10.0396 81.3283 9.51957C81.8483 9.55957 82.3683 9.58957 82.8883 9.60957C83.4083 9.62957 83.9283 9.63957 84.4483 9.63957C85.4683 9.63957 86.4483 9.61957 87.3883 9.57957C88.3483 9.51957 89.2283 9.45957 90.0283 9.39957C90.8483 9.31957 91.6483 9.22957 92.4283 9.12957L92.0983 10.7496C91.9983 11.2096 91.8983 11.6796 91.7983 12.1596C91.7183 12.6396 91.6383 13.0496 91.5583 13.3896C91.1183 13.5096 90.6683 13.5996 90.2083 13.6596C89.7683 13.6996 89.3283 13.7596 88.8883 13.8396C88.7483 14.5196 88.5983 15.2796 88.4383 16.1196C88.2783 16.9396 88.1183 17.7996 87.9583 18.6996C87.8183 19.5796 87.6783 20.4796 87.5383 21.3996C87.3983 22.3196 87.2583 23.1996 87.1183 24.0396C86.7983 26.0196 86.4983 28.0696 86.2183 30.1896L80.8183 31.0296Z" fill="white"/>
<path d="M102.877 23.5896C102.877 24.7096 102.657 25.7296 102.217 26.6496C101.797 27.5496 101.217 28.3296 100.477 28.9896C99.7574 29.6496 98.8974 30.1596 97.8974 30.5196C96.9174 30.8796 95.8574 31.0596 94.7174 31.0596C93.9174 31.0596 93.1174 30.8496 92.3174 30.4296C91.5174 29.9896 90.7474 29.2996 90.0074 28.3596L92.2274 24.0096C92.3674 24.2696 92.5774 24.5396 92.8574 24.8196C93.1374 25.0796 93.4474 25.3096 93.7874 25.5096C94.1474 25.7096 94.4974 25.8796 94.8374 26.0196C95.1974 26.1396 95.5174 26.1996 95.7974 26.1996C96.0374 26.1996 96.2874 26.1596 96.5474 26.0796C96.8074 25.9996 97.0474 25.8796 97.2674 25.7196C97.4874 25.5596 97.6574 25.3796 97.7774 25.1796C97.9174 24.9596 97.9874 24.7096 97.9874 24.4296C97.9874 23.9496 97.8274 23.5096 97.5074 23.1096C97.2074 22.6896 96.8274 22.2996 96.3674 21.9396C95.9074 21.5596 95.4074 21.1796 94.8674 20.7996C94.3274 20.4196 93.8274 20.0196 93.3674 19.5996C92.9274 19.1796 92.5474 18.7096 92.2274 18.1896C91.9074 17.6696 91.7474 17.0896 91.7474 16.4496C91.7474 15.4096 92.0574 14.4396 92.6774 13.5396C93.2974 12.6396 94.0674 11.8696 94.9874 11.2296C95.9274 10.5696 96.9474 10.0496 98.0474 9.66957C99.1474 9.28957 100.187 9.09957 101.167 9.09957C101.707 9.09957 102.217 9.16957 102.697 9.30957C103.177 9.42957 103.587 9.63957 103.927 9.93957C104.287 10.2196 104.567 10.5796 104.767 11.0196C104.987 11.4596 105.097 12.0096 105.097 12.6696C105.097 12.9496 105.067 13.2296 105.007 13.5096C104.967 13.7896 104.927 14.0896 104.887 14.4096L100.537 15.6696C100.577 15.5096 100.607 15.3496 100.627 15.1896C100.667 15.0296 100.687 14.8696 100.687 14.7096C100.687 14.1096 100.577 13.6796 100.357 13.4196C100.157 13.1396 99.8874 12.9996 99.5474 12.9996C99.3874 12.9996 99.1874 13.0596 98.9474 13.1796C98.7274 13.2996 98.4974 13.4596 98.2574 13.6596C98.0374 13.8396 97.8474 14.0596 97.6874 14.3196C97.5274 14.5796 97.4474 14.8596 97.4474 15.1596C97.4474 15.6396 97.5774 16.0396 97.8374 16.3596C98.1174 16.6796 98.4574 16.9796 98.8574 17.2596C99.2574 17.5396 99.6874 17.8296 100.147 18.1296C100.627 18.4096 101.067 18.7796 101.467 19.2396C101.867 19.6996 102.197 20.2796 102.457 20.9796C102.737 21.6596 102.877 22.5296 102.877 23.5896Z" fill="white"/>
</g>
</svg>
