<svg width="24" height="24" viewBox="0 0 24 24" fill="none" xmlns="http://www.w3.org/2000/svg">
<path d="M3.3771 5.46017L11.4672 1.00027C11.7746 0.830794 12.1213 0.745241 12.4723 0.752205C12.8233 0.759168 13.1663 0.858404 13.4668 1.03994L21.3736 5.81721C21.5245 5.90851 21.6627 6.01938 21.7846 6.14693L12.2611 11.3951L2.95332 5.77233C3.08021 5.65006 3.22271 5.5451 3.3771 5.46017ZM11.2435 6.32338C11.5854 6.5062 11.9657 6.60551 12.3532 6.6132C12.7408 6.62089 13.1247 6.53674 13.4736 6.36762C14.099 6.02296 14.117 5.4432 13.5098 5.07408C13.1667 4.89122 12.7852 4.79189 12.3965 4.78418C12.0078 4.77647 11.6228 4.86059 11.2727 5.0297C11.1368 5.0729 11.0179 5.15746 10.9324 5.27156C10.847 5.38566 10.7993 5.52361 10.7961 5.66612C10.7929 5.80864 10.8343 5.94859 10.9145 6.06643C10.9947 6.18427 11.1098 6.2741 11.2435 6.32338Z" fill="#727489"/>
<path d="M22.2719 7.01927C22.3195 7.19809 22.3421 7.38267 22.339 7.56771L22.1558 16.8039C22.1486 17.1547 22.0493 17.4975 21.8678 17.7978C21.6863 18.0981 21.4289 18.3453 21.1216 18.5147L13.0316 22.9736C12.8732 23.0608 12.7037 23.126 12.5277 23.1672L12.7439 12.2693L22.2719 7.01927ZM19.9854 12.645C20.2604 12.4744 20.4911 12.241 20.6585 11.964C20.8259 11.687 20.9251 11.3742 20.9482 11.0513C20.9599 10.4604 20.5447 10.2141 20.0214 10.5023C19.7476 10.6727 19.5181 10.9055 19.3514 11.1815C19.1847 11.4575 19.0856 11.769 19.0622 12.0906C19.0519 12.6855 19.4651 12.9308 19.9854 12.645ZM17.6597 16.5627C17.9348 16.392 18.1655 16.1585 18.3329 15.8814C18.5003 15.6043 18.5995 15.2914 18.6225 14.9684C18.6342 14.3781 18.2195 14.1313 17.6962 14.42C17.4222 14.5902 17.1925 14.8228 17.0257 15.0989C16.8589 15.3749 16.7598 15.6865 16.7365 16.0082C16.7277 16.6027 17.1409 16.8489 17.6597 16.5627ZM15.3355 20.4798C15.6106 20.3093 15.8413 20.0759 16.0087 19.7988C16.176 19.5218 16.2753 19.209 16.2983 18.8861C16.3101 18.2952 15.8954 18.049 15.372 18.3371C15.0982 18.5074 14.8685 18.7401 14.7017 19.0161C14.5349 19.2922 14.4357 19.6037 14.4123 19.9254C14.4035 20.5199 14.8172 20.7666 15.337 20.4799L15.3355 20.4798Z" fill="#727489"/>
<path d="M2.4318 6.62565L11.744 12.251L11.5278 23.1488C11.3536 23.1007 11.1867 23.0289 11.032 22.9355L3.12519 18.1577C2.8247 17.9761 2.57729 17.7187 2.40781 17.4113C2.23834 17.1038 2.15279 16.7572 2.15974 16.4062L2.34296 7.171C2.3472 6.98598 2.3771 6.80245 2.4318 6.62565ZM8.6131 12.6709C8.10165 12.3607 7.67898 12.5919 7.66569 13.1863C7.67593 13.5094 7.76265 13.8255 7.91873 14.1086C8.07481 14.3917 8.2958 14.6337 8.56357 14.8149C9.07157 15.122 9.49768 14.8939 9.51139 14.3036C9.50098 13.9798 9.41407 13.6631 9.25777 13.3793C9.10147 13.0955 8.88021 12.8528 8.6121 12.6709L8.6131 12.6709ZM8.4675 19.1023C8.97552 19.409 9.40162 19.1814 9.41484 18.5905C9.40437 18.2671 9.31746 17.9507 9.16124 17.6673C9.00501 17.3838 8.78391 17.1414 8.51601 16.9599C8.00456 16.6497 7.58189 16.8808 7.5681 17.4752C7.57907 17.798 7.66617 18.1136 7.8223 18.3964C7.97842 18.6792 8.19915 18.921 8.4665 19.1023L8.4675 19.1023ZM4.92259 10.4418C4.41114 10.1316 3.98847 10.3628 3.97468 10.9571C3.98539 11.28 4.07243 11.5958 4.22867 11.8787C4.38491 12.1615 4.60591 12.4033 4.87359 12.5843C5.38209 12.8914 5.80474 12.6612 5.81795 12.0709C5.80795 11.7479 5.72159 11.4319 5.56597 11.1488C5.41034 10.8656 5.18986 10.6234 4.92259 10.4418ZM4.77649 16.8732C5.2845 17.1803 5.70715 16.9502 5.72086 16.3598C5.71092 16.0368 5.62454 15.7207 5.46882 15.4375C5.31309 15.1544 5.09245 14.9121 4.825 14.7307C4.31355 14.4205 3.89088 14.6517 3.87759 15.246C3.88818 15.569 3.97516 15.8848 4.13142 16.1677C4.28767 16.4505 4.50874 16.6923 4.77649 16.8732Z" fill="#727489"/>
</svg>
