<svg width="24" height="24" viewBox="0 0 24 24" fill="none" xmlns="http://www.w3.org/2000/svg">
<path d="M22.2885 1.22291H20.8141V1.00362C20.8141 0.863587 20.7006 0.750076 20.5605 0.750076H3.10046C2.96039 0.750076 2.84692 0.863587 2.84692 1.00362V1.22291H1.37253C1.02887 1.22291 0.750092 1.50156 0.750092 1.84527C0.750092 2.18897 1.02887 2.46762 1.37253 2.46762H2.84692V2.68692C2.84692 2.82695 2.96039 2.94046 3.10046 2.94046H20.5605C20.7006 2.94046 20.8141 2.82695 20.8141 2.68692V2.46762H22.2885C22.6321 2.46762 22.9107 2.18897 22.9107 1.84527C22.9107 1.50156 22.6321 1.22291 22.2885 1.22291Z" fill="#727489"/>
<path d="M4.17711 19.4531L11.8306 23.2499L19.484 19.4531V3.64343H4.17711V19.4531ZM12.6884 10.6957L13.3072 9.44065L13.9295 10.6957L15.311 10.8961L14.309 11.8735L14.5447 13.2551L13.3072 12.6012L12.0661 13.2516L12.3052 11.8735L11.3032 10.8961L12.6884 10.6957ZM9.41892 7.80241C8.89862 8.65668 8.59976 9.65861 8.59976 10.7344C8.59976 13.8668 11.1415 16.4051 14.2704 16.4051C15.2969 16.4051 16.2603 16.1344 17.0899 15.6527C16.102 17.291 14.2985 18.3878 12.2419 18.3878C9.10941 18.3878 6.57125 15.8496 6.57125 12.7172C6.57125 10.6149 7.71382 8.77624 9.41892 7.80241Z" fill="#727489"/>
</svg>
