<svg width="24" height="24" viewBox="0 0 24 24" fill="none" xmlns="http://www.w3.org/2000/svg">
<g clip-path="url(#clip0_9413_2311)">
<path d="M21.7271 3.88179H11.7454C10.7642 3.88179 9.96142 4.68015 9.96142 5.66584V21.6107C9.96142 22.5964 10.7642 23.3948 11.7454 23.3948H21.7271C22.7128 23.3948 23.5111 22.5964 23.5111 21.6107V5.66584C23.5111 4.68015 22.7128 3.88179 21.7271 3.88179ZM11.2245 7.14339L13.0841 5.27977L14.9477 7.14339L13.0841 9.00303L11.2245 7.14339ZM13.7287 13.6415L16.7331 10.6306L19.7439 13.6415L16.7331 16.6459L13.7287 13.6415ZM20.3845 21.9968L18.5248 20.1371L20.3845 18.2735L22.2481 20.1371L20.3845 21.9968Z" fill="#727489"/>
<path d="M9.257 5.66474C9.257 4.29181 10.3723 3.17651 11.7453 3.17651H13.397L12.3946 1.48239C11.8899 0.631815 10.7958 0.352978 9.94875 0.854148L1.3652 5.94358C0.518175 6.44475 0.235804 7.53886 0.736953 8.38592L8.8652 22.1047C9.0346 22.3871 9.2676 22.6094 9.53584 22.7577C9.35937 22.4153 9.257 22.0236 9.257 21.6106V5.66474Z" fill="#727489"/>
</g>
<defs>
<clipPath id="clip0_9413_2311">
<rect width="24" height="24" fill="white"/>
</clipPath>
</defs>
</svg>
