<svg width="24" height="24" viewBox="0 0 24 24" fill="none" xmlns="http://www.w3.org/2000/svg">
<path d="M23.2405 8.01432C23.204 8.15671 23.0581 8.2635 22.8757 8.2635L21.5261 8.2991L21.4896 9.6162C21.4896 9.75859 21.3802 9.90098 21.2343 9.93658C21.0883 9.97218 20.906 9.90098 20.833 9.75859L20.1399 8.61948L18.9727 9.26023C18.8267 9.33142 18.6444 9.29583 18.5349 9.18903C18.4255 9.08224 18.389 8.90425 18.462 8.76187L19.1186 7.62275L17.9513 6.9464C17.8054 6.87521 17.7324 6.69722 17.8054 6.55483C17.8419 6.41244 17.9878 6.30565 18.1702 6.30565L19.5198 6.27005L19.5563 4.95295C19.5563 4.95295 19.5563 4.95295 19.5563 4.91735C18.6444 3.24427 16.857 2.21195 14.8872 2.21195H13.1728C11.3489 2.21195 9.8898 3.63584 9.8898 5.41571V6.48363H12.808C13.0268 6.48363 13.1728 6.62602 13.1728 6.83961V7.69394H5.87728V6.83961C5.87728 6.62602 6.02319 6.48363 6.24206 6.48363H9.16025V5.41571C9.16025 3.24427 10.9476 1.5 13.1728 1.5H14.8872C17.2947 1.5 19.4833 2.9239 20.4318 5.09534L20.906 5.87848L22.0732 5.23773C22.2191 5.16653 22.4015 5.20213 22.511 5.30892C22.6204 5.41571 22.6569 5.5937 22.5839 5.73609L21.9273 6.8752L23.0946 7.55155C23.204 7.69394 23.277 7.87193 23.2405 8.01432ZM13.1728 8.44149H5.87728C3.28739 9.72299 1.5 12.3572 1.5 15.4186C1.5 19.7615 5.07478 23.25 9.52502 23.25C13.9753 23.25 17.55 19.7615 17.55 15.4186C17.55 12.3928 15.7627 9.75859 13.1728 8.44149Z" fill="#727489"/>
</svg>
