<svg width="24" height="24" viewBox="0 0 24 24" fill="none" xmlns="http://www.w3.org/2000/svg">
<path d="M11.8318 11.0971C12.5073 11.0971 13.0567 10.5477 13.0567 9.87218C13.0567 9.19697 12.5073 8.64757 11.8318 8.64757C11.1566 8.64757 10.6072 9.19697 10.6072 9.87218C10.6072 10.5477 11.1566 11.0971 11.8318 11.0971Z" fill="#727489"/>
<path d="M10.459 13.6734C11.3308 14.0123 12.326 14.0476 13.2296 13.7723C13.8896 13.5711 14.5037 13.2005 14.9977 12.7064C15.8025 11.9017 16.2472 10.8323 16.2472 9.69579V8.8629C16.2472 7.78994 16.4765 6.75227 16.9319 5.77815L17.306 4.9911C17.455 4.67108 17.2292 4.30284 16.8684 4.30284C16.6849 4.30284 16.5119 4.41227 16.4343 4.58168L15.072 7.47229C15.0014 7.62407 14.8354 7.70524 14.6767 7.66638C14.5143 7.63109 14.4013 7.48991 14.4013 7.32404V2.28403C14.4013 1.96995 14.1437 1.71231 13.8295 1.71231C13.5189 1.71231 13.2613 1.96641 13.2613 2.28403V6.12054C13.2613 6.31463 13.106 6.47348 12.9084 6.47348C12.7143 6.47348 12.5554 6.31463 12.5554 6.12054V1.27466C12.5554 0.956965 12.2978 0.70639 11.9838 0.70639C11.6696 0.70639 11.4154 0.960498 11.4154 1.27466V6.12054C11.4154 6.31463 11.2565 6.47348 11.0625 6.47348C10.8684 6.47348 10.7095 6.31463 10.7095 6.12054V2.52405C10.7095 2.22052 10.459 1.95582 10.1414 1.95582C9.82374 1.95582 9.56955 2.20992 9.56955 2.52405V6.12054C9.56955 6.31463 9.41083 6.47348 9.21661 6.47348C9.01894 6.47348 8.86367 6.31463 8.86367 6.12054V3.62875C8.86367 3.3111 8.60258 3.05699 8.29186 3.05699C7.97787 3.05699 7.72367 3.31463 7.72367 3.62875V9.69579C7.72367 11.4499 8.82489 13.0487 10.459 13.6734ZM11.832 7.94168C12.8978 7.94168 13.7624 8.80637 13.7624 9.87226C13.7624 10.9382 12.8978 11.8028 11.832 11.8028C10.7695 11.8028 9.90129 10.9382 9.90129 9.87226C9.90129 8.80637 10.7695 7.94168 11.832 7.94168Z" fill="#727489"/>
<path d="M21.6897 22.5877H15.8784L14.7449 21.3063H12.8787V18.6456C12.891 18.6445 12.9034 18.644 12.9154 18.6429C17.5531 18.177 21.0506 14.3052 21.0506 9.63935C21.0506 7.37346 20.2072 5.19933 18.679 3.52639C18.552 3.38878 18.3402 3.37111 18.1954 3.48757C18.0506 3.60402 18.0226 3.81229 18.1284 3.96756C19.0107 5.22406 19.4765 6.70639 19.4765 8.24874C19.4765 11.9186 16.8217 14.9732 13.332 15.6051V14.4746C12.8978 14.6017 12.446 14.6617 11.9872 14.6617C11.412 14.6617 10.8577 14.5664 10.332 14.3758V15.5373C7.01021 14.7766 4.52256 11.8009 4.52256 8.24874C4.52256 6.70992 4.98838 5.22759 5.87418 3.96756C5.98016 3.81229 5.94845 3.60402 5.80369 3.48757C5.65893 3.37111 5.44713 3.38878 5.32374 3.52639C3.79186 5.19933 2.9519 7.37346 2.9519 9.63935C2.9519 14.3052 6.44598 18.177 11.0837 18.6429C11.0954 18.644 11.1076 18.6444 11.1194 18.6455V21.3063H9.25555L8.12211 22.5877H2.31064C2.11556 22.5877 1.9577 22.7456 1.9577 22.9407C1.9577 23.1357 2.11556 23.2936 2.31064 23.2936H21.6897C21.8847 23.2936 22.0426 23.1357 22.0426 22.9407C22.0426 22.7456 21.8847 22.5877 21.6897 22.5877Z" fill="#727489"/>
</svg>
