<svg width="24" height="24" viewBox="0 0 24 24" fill="none" xmlns="http://www.w3.org/2000/svg">
<g clip-path="url(#clip0_9413_2320)">
<path fill-rule="evenodd" clip-rule="evenodd" d="M9.21804 18.6592C9.07146 18.6592 8.93821 18.6059 8.84493 18.4993L3.22157 12.8759C3.10164 12.7693 3.04833 12.6094 3.06166 12.4628C3.07498 12.3029 3.15494 12.1563 3.28819 12.0631L5.31367 10.6239C5.52688 10.4773 5.80671 10.504 5.99327 10.6905L11.0303 15.7276C11.2169 15.9141 11.2435 16.194 11.0836 16.4072L9.65778 18.4327C9.56451 18.5659 9.41793 18.6459 9.25802 18.6592C9.24469 18.6592 9.23137 18.6592 9.21804 18.6592Z" fill="#727489"/>
<path fill-rule="evenodd" clip-rule="evenodd" d="M7.23253 11.1703L16.0274 1.82916C16.094 1.74921 16.1873 1.69591 16.2939 1.68258L20.2649 0.763121C20.4514 0.723145 20.638 0.776447 20.7579 0.909702C20.8912 1.02963 20.9445 1.21619 20.9045 1.40275L20.0383 5.41372C20.025 5.52033 19.9717 5.61361 19.8918 5.69356L10.5506 14.4884L7.23253 11.1703Z" fill="#727489"/>
<path fill-rule="evenodd" clip-rule="evenodd" d="M3.9679 19.6185C3.83465 19.6185 3.70139 19.5652 3.59479 19.4719L2.24891 18.126C2.06235 17.9395 2.04903 17.633 2.20893 17.4198L4.30104 14.7147L7.00612 17.4198L4.30104 19.5119C4.19444 19.5918 4.08783 19.6185 3.9679 19.6185Z" fill="#727489"/>
<path fill-rule="evenodd" clip-rule="evenodd" d="M5.11395 20.7646C4.98069 20.7646 4.83411 20.7113 4.74083 20.6047L1.1163 16.9802C0.903088 16.7803 0.903088 16.4338 1.1163 16.234C1.31618 16.0208 1.66264 16.0208 1.86252 16.234L5.48706 19.8585C5.70027 20.0584 5.70027 20.4048 5.48706 20.6047C5.38046 20.7113 5.2472 20.7646 5.11395 20.7646Z" fill="#727489"/>
<path fill-rule="evenodd" clip-rule="evenodd" d="M19.7988 16.5805C19.6523 16.5805 19.519 16.5272 19.4124 16.4206L15.8545 12.8627C15.6679 12.6761 15.6546 12.383 15.8012 12.1698L16.8139 10.7439C16.9072 10.6107 17.0538 10.5307 17.2004 10.5174C17.3603 10.5041 17.5202 10.5707 17.6268 10.6773L21.5978 14.6483C21.7177 14.7549 21.771 14.9148 21.7577 15.0747C21.7444 15.2213 21.6644 15.3679 21.5312 15.4612L20.1053 16.4739C20.012 16.5405 19.9054 16.5805 19.7988 16.5805Z" fill="#727489"/>
<path fill-rule="evenodd" clip-rule="evenodd" d="M9.35161 23.483C9.21835 23.483 9.0851 23.4297 8.97849 23.3364C8.84524 23.2031 8.79193 23.0166 8.83191 22.8433L9.44488 20.005C9.47154 19.8984 9.52484 19.8051 9.60479 19.7252L15.9744 13.7287L18.5462 16.3138L12.5497 22.6701C12.4831 22.7501 12.3898 22.8034 12.2832 22.83L9.47154 23.4696C9.43156 23.483 9.39158 23.483 9.35161 23.483Z" fill="#727489"/>
<path fill-rule="evenodd" clip-rule="evenodd" d="M18.9462 11.2502L20.6385 9.94431C20.8517 9.7844 21.1449 9.79773 21.3315 9.99761L22.2909 10.9437C22.4774 11.1303 22.4908 11.4368 22.3309 11.6366L21.0383 13.329L18.9462 11.2502Z" fill="#727489"/>
<path fill-rule="evenodd" clip-rule="evenodd" d="M22.7168 12.6626C22.5836 12.6626 22.437 12.6093 22.3437 12.5027L19.7719 9.94421C19.572 9.731 19.572 9.39786 19.7719 9.18465C19.9851 8.97144 20.3182 8.97144 20.5314 9.18465L23.0899 11.7431C23.3031 11.9564 23.3031 12.2895 23.0899 12.5027C22.9833 12.6093 22.8501 12.6626 22.7168 12.6626Z" fill="#727489"/>
</g>
<defs>
<clipPath id="clip0_9413_2320">
<rect width="24" height="24" fill="white"/>
</clipPath>
</defs>
</svg>
