<svg width="24" height="24" viewBox="0 0 24 24" fill="none" xmlns="http://www.w3.org/2000/svg">
<path d="M16.1506 11.129C16.7966 11.129 17.4954 10.8431 18.1764 10.3031C18.1976 10.2855 18.2223 10.2678 18.2436 10.2466C17.8624 9.51959 17.6506 8.70076 17.6577 7.76899C18.0989 7.56428 18.4024 7.11959 18.4024 6.60076C18.4024 5.88781 17.8271 5.31254 17.1176 5.31254C16.4047 5.31254 15.826 5.88781 15.826 6.60076C15.826 7.05958 16.0659 7.46194 16.4259 7.68782C16.1436 8.54194 15.4377 9.38194 14.4742 10.2043C14.4776 10.2184 14.4883 10.229 14.4954 10.2396C14.9012 10.8043 15.4623 11.129 16.1506 11.129Z" fill="#727489"/>
<path d="M6.34593 7.76899C6.35299 8.67606 6.15179 9.47371 5.78825 10.1867C5.81651 10.2113 5.84124 10.236 5.86942 10.2572C6.56824 10.829 7.28825 11.1325 7.95183 11.1325C8.10357 11.1325 8.25169 11.1149 8.393 11.0831C8.85882 10.9772 9.25416 10.709 9.57522 10.2819C9.57884 10.2749 9.5859 10.2678 9.58935 10.2608C8.59412 9.41371 7.86359 8.55605 7.57415 7.68782C7.93416 7.46194 8.17414 7.05958 8.17414 6.60076C8.17414 5.88781 7.59527 5.31254 6.8824 5.31254C6.17299 5.31254 5.59765 5.88781 5.59765 6.60076C5.59765 7.11959 5.90475 7.56781 6.34593 7.76899Z" fill="#727489"/>
<path d="M21.8964 5.31254C21.1235 5.31254 20.4988 5.93723 20.4988 6.71017C20.4988 7.10546 20.6612 7.46194 20.9259 7.71958C20.3541 9.03606 19.5318 10.1302 18.6142 10.8572C17.6365 11.6337 16.5565 11.9902 15.5576 11.7714C14.8871 11.6196 14.3365 11.2278 13.9236 10.6525C13.4012 9.92899 13.0941 8.91958 13.0553 7.76546C13.507 7.44076 13.8 6.90782 13.8 6.30781C13.8 5.31254 12.9918 4.50429 11.9965 4.50429C11.0011 4.50429 10.2001 5.31254 10.2001 6.30781C10.2001 6.9537 10.5353 7.51842 11.0435 7.83605C10.9977 8.98664 10.6835 9.99252 10.14 10.7055C9.73411 11.249 9.19763 11.6266 8.54828 11.7714C7.52823 12.0008 6.4165 11.6161 5.42118 10.8008C4.51771 10.056 3.70947 8.9584 3.14826 7.64194C3.36704 7.39488 3.5012 7.06664 3.5012 6.71017C3.5012 5.93723 2.87295 5.31254 2.10003 5.31254C1.32711 5.31254 0.705933 5.93723 0.705933 6.71017C0.705933 7.35253 1.13298 7.89254 1.71883 8.05841L4.64826 16.769H19.3483L22.2811 8.05487C22.8636 7.889 23.2941 7.34899 23.2941 6.71017C23.2941 5.93723 22.6659 5.31254 21.8964 5.31254Z" fill="#727489"/>
<path d="M3.30742 17.4752H20.6922V19.4958H3.30742V17.4752Z" fill="#727489"/>
</svg>
